<svg width="15" height="16" viewBox="0 0 15 16" fill="none" xmlns="http://www.w3.org/2000/svg">
<path d="M13.7915 5.32775C13.7199 5.07227 13.5803 4.84097 13.3878 4.65844C13.1898 4.4703 12.9471 4.33571 12.6826 4.26739C11.6929 4.00652 7.72761 4.00652 7.72761 4.00652C6.07454 3.98771 4.42186 4.07043 2.77893 4.25422C2.51446 4.32759 2.27223 4.46518 2.07378 4.65475C1.87878 4.84237 1.73754 5.07373 1.66376 5.32722C1.48652 6.28204 1.4004 7.25154 1.40658 8.22265C1.40025 9.19289 1.48615 10.1621 1.66376 11.1181C1.73596 11.3705 1.87667 11.6008 2.0722 11.7869C2.26772 11.9729 2.5112 12.1073 2.77893 12.1784C3.78184 12.4388 7.72761 12.4388 7.72761 12.4388C9.3828 12.4576 11.0376 12.3749 12.6826 12.1911C12.9471 12.1228 13.1898 11.9882 13.3878 11.8C13.5828 11.614 13.7214 11.3826 13.7909 11.1307C13.9728 10.1763 14.0612 9.20638 14.055 8.23477C14.0687 7.25906 13.9803 6.28458 13.7915 5.32722V5.32775ZM6.46699 10.0272V6.41868L9.76612 8.22318L6.46699 10.0272Z" fill="black"/>
</svg>
