<svg width="12" height="11" viewBox="0 0 12 11" fill="none" xmlns="http://www.w3.org/2000/svg">
<path d="M6.04987 4.58386L1.97184 0.559806C1.84205 0.431737 1.6667 0.360471 1.48437 0.361686C1.30204 0.3629 1.12766 0.436496 0.999588 0.566284C0.871519 0.696071 0.800253 0.871418 0.801468 1.05375C0.802683 1.23608 0.876279 1.41046 1.00607 1.53853L5.0841 5.56258L1.06005 9.64062C0.931981 9.77041 0.860715 9.94575 0.86193 10.1281C0.863145 10.3104 0.936741 10.4848 1.06653 10.6129C1.19632 10.7409 1.37166 10.8122 1.55399 10.811C1.73633 10.8098 1.91071 10.7362 2.03878 10.6064L6.06283 6.52836L10.1409 10.5524C10.2718 10.6783 10.4467 10.748 10.6283 10.7468C10.8099 10.7456 10.9839 10.6735 11.1131 10.5459C11.2412 10.4161 11.3124 10.2408 11.3112 10.0585C11.31 9.87613 11.2364 9.70175 11.1066 9.57368L7.0286 5.54963L11.0527 1.47159C11.1807 1.34181 11.252 1.16646 11.2508 0.984127C11.2496 0.801794 11.176 0.627413 11.0462 0.499344C10.9152 0.373483 10.7403 0.303726 10.5587 0.304936C10.3771 0.306146 10.2032 0.378227 10.0739 0.505822L6.04987 4.58386Z" fill="#111111"/>
</svg>
