<svg width="27" height="27" viewBox="0 0 27 27" fill="none" xmlns="http://www.w3.org/2000/svg">
<path d="M20.25 12.0938C19.7887 12.0938 19.4062 11.7113 19.4062 11.25V9C19.4062 5.45625 18.405 3.09375 13.5 3.09375C8.595 3.09375 7.59375 5.45625 7.59375 9V11.25C7.59375 11.7113 7.21125 12.0938 6.75 12.0938C6.28875 12.0938 5.90625 11.7113 5.90625 11.25V9C5.90625 5.7375 6.69375 1.40625 13.5 1.40625C20.3063 1.40625 21.0938 5.7375 21.0938 9V11.25C21.0938 11.7113 20.7113 12.0938 20.25 12.0938Z" fill="white"/>
<path d="M13.5 21.6562C11.4863 21.6562 9.84375 20.0138 9.84375 18C9.84375 15.9863 11.4863 14.3438 13.5 14.3438C15.5138 14.3438 17.1562 15.9863 17.1562 18C17.1562 20.0138 15.5138 21.6562 13.5 21.6562ZM13.5 16.0312C12.42 16.0312 11.5312 16.92 11.5312 18C11.5312 19.08 12.42 19.9688 13.5 19.9688C14.58 19.9688 15.4688 19.08 15.4688 18C15.4688 16.92 14.58 16.0312 13.5 16.0312Z" fill="white"/>
<path d="M19.125 25.5938H7.875C2.91375 25.5938 1.40625 24.0863 1.40625 19.125V16.875C1.40625 11.9138 2.91375 10.4062 7.875 10.4062H19.125C24.0863 10.4062 25.5938 11.9138 25.5938 16.875V19.125C25.5938 24.0863 24.0863 25.5938 19.125 25.5938ZM7.875 12.0938C3.8475 12.0938 3.09375 12.8588 3.09375 16.875V19.125C3.09375 23.1412 3.8475 23.9062 7.875 23.9062H19.125C23.1525 23.9062 23.9062 23.1412 23.9062 19.125V16.875C23.9062 12.8588 23.1525 12.0938 19.125 12.0938H7.875Z" fill="white"/>
</svg>
