<svg width="29" height="29" viewBox="0 0 29 29" fill="none" xmlns="http://www.w3.org/2000/svg">
<path d="M14.6451 16.3482C14.6209 16.3482 14.5847 16.3482 14.5605 16.3482C14.5242 16.3482 14.4759 16.3482 14.4397 16.3482C11.6967 16.2636 9.64258 14.1248 9.64258 11.4907C9.64258 8.80818 11.8297 6.62109 14.5122 6.62109C17.1947 6.62109 19.3817 8.80818 19.3817 11.4907C19.3697 14.1369 17.3034 16.2636 14.6813 16.3482C14.6572 16.3482 14.6572 16.3482 14.6451 16.3482ZM14.5001 8.42151C12.8084 8.42151 11.443 9.79901 11.443 11.4786C11.443 13.134 12.7359 14.4753 14.3792 14.5357C14.4155 14.5236 14.5363 14.5236 14.6572 14.5357C16.2763 14.4511 17.5451 13.1219 17.5572 11.4786C17.5572 9.79901 16.1917 8.42151 14.5001 8.42151Z" fill="white"/>
<path d="M14.5013 27.489C11.2509 27.489 8.14547 26.2807 5.74089 24.0815C5.52339 23.8882 5.42672 23.5981 5.45089 23.3202C5.60797 21.8823 6.50214 20.5411 7.98839 19.5502C11.5892 17.1577 17.4255 17.1577 21.0142 19.5502C22.5005 20.5532 23.3946 21.8823 23.5517 23.3202C23.588 23.6102 23.4792 23.8882 23.2617 24.0815C20.8571 26.2807 17.7517 27.489 14.5013 27.489ZM7.34797 23.0786C9.35381 24.7582 11.8792 25.6765 14.5013 25.6765C17.1234 25.6765 19.6488 24.7582 21.6546 23.0786C21.4371 22.3415 20.8571 21.6286 19.9992 21.0486C17.0267 19.0669 11.988 19.0669 8.99131 21.0486C8.13339 21.6286 7.56547 22.3415 7.34797 23.0786Z" fill="white"/>
<path d="M14.4993 27.4899C7.33393 27.4899 1.50977 21.6657 1.50977 14.5003C1.50977 7.33491 7.33393 1.51074 14.4993 1.51074C21.6648 1.51074 27.4889 7.33491 27.4889 14.5003C27.4889 21.6657 21.6648 27.4899 14.4993 27.4899ZM14.4993 3.32324C8.33685 3.32324 3.32227 8.33783 3.32227 14.5003C3.32227 20.6628 8.33685 25.6774 14.4993 25.6774C20.6618 25.6774 25.6764 20.6628 25.6764 14.5003C25.6764 8.33783 20.6618 3.32324 14.4993 3.32324Z" fill="white"/>
</svg>
