<svg width="14" height="14" viewBox="0 0 14 14" fill="none" xmlns="http://www.w3.org/2000/svg">
<path d="M3.48196 1.07114C3.67064 0.920197 3.70123 0.644881 3.55029 0.456204C3.39935 0.267527 3.12403 0.236937 2.93535 0.387878L1.47702 1.55454C1.28834 1.70549 1.25775 1.9808 1.4087 2.16948C1.55964 2.35816 1.83495 2.38875 2.02363 2.23781L3.48196 1.07114Z" fill="#2D264B"/>
<path d="M11.0653 0.387878C10.8766 0.236937 10.6013 0.267527 10.4504 0.456204C10.2994 0.644881 10.33 0.920197 10.5187 1.07114L11.977 2.23781C12.1657 2.38875 12.441 2.35816 12.592 2.16948C12.7429 1.9808 12.7123 1.70549 12.5236 1.55454L11.0653 0.387878Z" fill="#2D264B"/>
<path d="M7.43783 4.81284C7.43783 4.57122 7.24195 4.37534 7.00033 4.37534C6.7587 4.37534 6.56283 4.57122 6.56283 4.81284V7.26625C6.56283 7.45221 6.49178 7.63115 6.36421 7.76645L5.51533 8.66682C5.34958 8.84263 5.35773 9.11952 5.53354 9.28527C5.70934 9.45103 5.98623 9.44288 6.15199 9.26707L7.00086 8.3667C7.28152 8.06902 7.43783 7.67537 7.43783 7.26625V4.81284Z" fill="#2D264B"/>
<path fill-rule="evenodd" clip-rule="evenodd" d="M7.00033 0.87534C3.53704 0.87534 0.729492 3.68289 0.729492 7.14617C0.729492 10.6095 3.53704 13.417 7.00033 13.417C10.4636 13.417 13.2712 10.6095 13.2712 7.14617C13.2712 3.68289 10.4636 0.87534 7.00033 0.87534ZM1.60449 7.14617C1.60449 4.16614 4.02029 1.75034 7.00033 1.75034C9.98036 1.75034 12.3962 4.16614 12.3962 7.14617C12.3962 10.1262 9.98036 12.542 7.00033 12.542C4.02029 12.542 1.60449 10.1262 1.60449 7.14617Z" fill="#2D264B"/>
</svg>
