<svg width="13" height="15" viewBox="0 0 13 15" fill="none" xmlns="http://www.w3.org/2000/svg">
<path d="M4.15625 8.75C4.15625 8.49112 4.36612 8.28125 4.625 8.28125H8.375C8.63388 8.28125 8.84375 8.49112 8.84375 8.75C8.84375 9.00888 8.63388 9.21875 8.375 9.21875H4.625C4.36612 9.21875 4.15625 9.00888 4.15625 8.75Z" fill="#282D3C"/>
<path fill-rule="evenodd" clip-rule="evenodd" d="M4.625 0.78125C4.88388 0.78125 5.09375 0.991117 5.09375 1.25V2.03788C5.51202 2.03125 5.97677 2.03125 6.49309 2.03125H6.50691C7.02323 2.03125 7.48798 2.03125 7.90625 2.03788V1.25C7.90625 0.991117 8.11612 0.78125 8.375 0.78125C8.63388 0.78125 8.84375 0.991117 8.84375 1.25V2.07099C9.7887 2.13023 10.5147 2.28334 11.1124 2.7176C11.4174 2.93926 11.6857 3.20756 11.9074 3.51265C12.4086 4.20243 12.5353 5.06305 12.5754 6.23395C12.5938 6.76971 12.5938 7.39307 12.5938 8.11812V8.13188C12.5938 8.85693 12.5938 9.48029 12.5754 10.0161C12.5353 11.187 12.4086 12.0476 11.9074 12.7374C11.6857 13.0424 11.4174 13.3107 11.1124 13.5324C10.4226 14.0336 9.56195 14.1603 8.39105 14.2004C7.85526 14.2188 7.23185 14.2188 6.50674 14.2188H6.4717C5.32388 14.2188 4.42413 14.2188 3.7103 14.1414C2.98184 14.0625 2.3916 13.8985 1.88765 13.5324C1.58256 13.3107 1.31426 13.0424 1.0926 12.7374C0.726453 12.2334 0.562504 11.6432 0.48358 10.9147C0.406241 10.2009 0.406245 9.30112 0.40625 8.15328L0.40625 8.11808C0.40625 7.39305 0.40625 6.7697 0.424605 6.23395C0.464722 5.06305 0.591435 4.20243 1.0926 3.51265C1.31426 3.20756 1.58256 2.93926 1.88765 2.7176C2.48535 2.28334 3.2113 2.13023 4.15625 2.07099V1.25C4.15625 0.991117 4.36612 0.78125 4.625 0.78125ZM4.15625 3.01078C3.30497 3.06933 2.81361 3.20366 2.4387 3.47605C2.21319 3.63989 2.01489 3.83819 1.85105 4.0637C1.57866 4.43861 1.44433 4.92997 1.38578 5.78125H11.6142C11.5557 4.92997 11.4213 4.43861 11.149 4.0637C10.9851 3.83819 10.7868 3.63989 10.5613 3.47605C10.1864 3.20366 9.69503 3.06933 8.84375 3.01078V3.125C8.84375 3.38388 8.63388 3.59375 8.375 3.59375C8.11612 3.59375 7.90625 3.38388 7.90625 3.125V2.97549C7.49401 2.96878 7.02973 2.96875 6.5 2.96875C5.97027 2.96875 5.50599 2.96878 5.09375 2.97549V3.125C5.09375 3.38388 4.88388 3.59375 4.625 3.59375C4.36612 3.59375 4.15625 3.38388 4.15625 3.125V3.01078ZM11.6495 6.71875H1.35049C1.34378 7.13099 1.34375 7.59527 1.34375 8.125C1.34375 9.30723 1.34439 10.1563 1.41563 10.8137C1.48591 11.4624 1.62037 11.8688 1.85105 12.1863C2.01489 12.4118 2.21319 12.6101 2.4387 12.774C2.7562 13.0046 3.16258 13.1391 3.81128 13.2094C4.46875 13.2806 5.31777 13.2812 6.5 13.2812C7.03022 13.2812 7.49486 13.2812 7.90739 13.2745C7.91012 12.9778 7.91935 12.7594 7.9505 12.5628C8.19405 11.0251 9.40007 9.81905 10.9378 9.57549C11.1344 9.54435 11.3528 9.53512 11.6495 9.53239C11.6562 9.11987 11.6562 8.65522 11.6562 8.125C11.6562 7.59527 11.6562 7.13099 11.6495 6.71875ZM11.6141 10.4705C11.361 10.4734 11.2126 10.4812 11.0845 10.5015C9.94788 10.6815 9.05647 11.5729 8.87645 12.7095C8.85616 12.8376 8.84841 12.986 8.84549 13.2391C9.6957 13.1805 10.1866 13.0462 10.5613 12.774C10.7868 12.6101 10.9851 12.4118 11.149 12.1863C11.4212 11.8116 11.5555 11.3207 11.6141 10.4705Z" fill="#282D3C"/>
</svg>
