<svg width="14" height="10" viewBox="0 0 14 10" fill="none" xmlns="http://www.w3.org/2000/svg">
<path d="M12.834 4.35C13.193 4.35 13.484 4.64101 13.484 5C13.484 5.35899 13.193 5.65 12.834 5.65V4.35ZM0.846271 5.45962C0.59243 5.20578 0.59243 4.79422 0.846271 4.54038L4.98285 0.403806C5.23669 0.149965 5.64824 0.149965 5.90208 0.403806C6.15592 0.657647 6.15592 1.0692 5.90208 1.32304L2.22513 5L5.90208 8.67696C6.15592 8.9308 6.15592 9.34235 5.90208 9.59619C5.64824 9.85003 5.23669 9.85003 4.98285 9.59619L0.846271 5.45962ZM12.834 5.65L1.30589 5.65V4.35L12.834 4.35V5.65Z" fill="white"/>
</svg>
