<svg width="12" height="12" viewBox="0 0 12 12" fill="none" xmlns="http://www.w3.org/2000/svg">
<path d="M7.40844 6.00044L10.9422 2.46669C11.1165 2.27669 11.2107 2.02671 11.2051 1.76892C11.1995 1.51114 11.0946 1.26547 10.9122 1.08321C10.7298 0.90094 10.4841 0.796161 10.2263 0.790739C9.9685 0.785316 9.71857 0.879671 9.52869 1.05411L9.5296 1.05319L5.99585 4.58694L2.4621 1.05319C2.2721 0.878878 2.02212 0.784685 1.76434 0.790274C1.50655 0.795864 1.26088 0.900803 1.07862 1.08319C0.896354 1.26557 0.791574 1.5113 0.786152 1.76909C0.78073 2.02688 0.875085 2.2768 1.04952 2.46669L1.0486 2.46577L4.58235 5.99952L1.0486 9.53327C0.949179 9.62449 0.869241 9.73488 0.813601 9.8578C0.757961 9.98072 0.727769 10.1136 0.724844 10.2485C0.72192 10.3834 0.746322 10.5175 0.796582 10.6427C0.846842 10.768 0.921921 10.8817 1.0173 10.9771C1.11268 11.0726 1.22638 11.1477 1.35156 11.1981C1.47675 11.2484 1.61083 11.2729 1.74572 11.2701C1.88062 11.2672 2.01355 11.2371 2.13651 11.1816C2.25946 11.126 2.36991 11.0461 2.46119 10.9468L2.4621 10.9459L5.99585 7.41211L9.5296 10.9459C9.62082 11.0453 9.73121 11.1252 9.85413 11.1809C9.97705 11.2365 10.11 11.2667 10.2449 11.2696C10.3798 11.2725 10.5138 11.2481 10.6391 11.1979C10.7643 11.1476 10.878 11.0725 10.9735 10.9772C11.0689 10.8818 11.1441 10.7681 11.1944 10.6429C11.2447 10.5177 11.2692 10.3836 11.2664 10.2487C11.2636 10.1138 11.2335 9.98091 11.1779 9.85795C11.1223 9.735 11.0425 9.62455 10.9431 9.53327L10.9422 9.53236L7.40844 6.00044Z" fill="#E11439"/>
</svg>
