<svg width="14" height="18" viewBox="0 0 14 18" fill="none" xmlns="http://www.w3.org/2000/svg">
<path d="M9.2118 15.2443L8.70031 14.8432L9.2118 15.2443ZM4.9755 15.2443L4.46402 15.6454L4.9755 15.2443ZM7.09365 17V16.35V17ZM12.5373 7.5573C12.5373 8.46979 12.0593 9.70462 11.2935 11.0584C10.5422 12.3868 9.57022 13.7339 8.70031 14.8432L9.72328 15.6454C10.6127 14.5112 11.6285 13.1067 12.4251 11.6985C13.2072 10.3157 13.8373 8.82879 13.8373 7.5573H12.5373ZM5.48699 14.8432C4.61708 13.7339 3.64514 12.3868 2.89376 11.0584C2.12799 9.70462 1.65 8.46979 1.65 7.5573H0.35C0.35 8.82879 0.980081 10.3157 1.76223 11.6985C2.55876 13.1067 3.57457 14.5112 4.46402 15.6454L5.48699 14.8432ZM1.65 7.5573C1.65 4.24908 4.13127 1.65 7.09365 1.65V0.35C3.32517 0.35 0.35 3.62253 0.35 7.5573H1.65ZM7.09365 1.65C10.056 1.65 12.5373 4.24908 12.5373 7.5573H13.8373C13.8373 3.62253 10.8621 0.35 7.09365 0.35V1.65ZM8.70031 14.8432C8.22712 15.4466 7.92136 15.833 7.64946 16.0799C7.4054 16.3016 7.25419 16.35 7.09365 16.35V17.65C7.67442 17.65 8.12335 17.4057 8.52356 17.0422C8.89594 16.7039 9.27859 16.2124 9.72328 15.6454L8.70031 14.8432ZM4.46402 15.6454C4.90871 16.2124 5.29136 16.7039 5.66374 17.0422C6.06395 17.4057 6.51288 17.65 7.09365 17.65V16.35C6.93311 16.35 6.7819 16.3016 6.53784 16.0799C6.26594 15.833 5.96018 15.4466 5.48699 14.8432L4.46402 15.6454ZM4.15853 7.85536C4.15853 9.47638 5.47263 10.7905 7.09365 10.7905V9.49047C6.1906 9.49047 5.45853 8.75841 5.45853 7.85536H4.15853ZM7.09365 10.7905C8.71467 10.7905 10.0288 9.47638 10.0288 7.85536H8.72877C8.72877 8.75841 7.9967 9.49047 7.09365 9.49047V10.7905ZM10.0288 7.85536C10.0288 6.23433 8.71467 4.92024 7.09365 4.92024V6.22024C7.9967 6.22024 8.72877 6.9523 8.72877 7.85536H10.0288ZM7.09365 4.92024C5.47263 4.92024 4.15853 6.23433 4.15853 7.85536H5.45853C5.45853 6.9523 6.1906 6.22024 7.09365 6.22024V4.92024Z" fill="#111111"/>
</svg>
