<svg width="19" height="19" viewBox="0 0 19 19" fill="none" xmlns="http://www.w3.org/2000/svg">
<path d="M3.16575 2.20414C3.22756 2.14232 3.25847 2.11142 3.2857 2.0864C3.95521 1.4712 4.98431 1.4712 5.65382 2.0864C5.68105 2.11142 5.71195 2.14232 5.77377 2.20414L7.04969 3.48006C7.75149 4.18185 7.9522 5.24169 7.55562 6.1515C7.15903 7.06131 7.35975 8.12114 8.06154 8.82294L10.1587 10.9201C10.8605 11.6219 11.9204 11.8227 12.8302 11.4261C13.74 11.0295 14.7998 11.2302 15.5016 11.932L16.7776 13.2079C16.8394 13.2697 16.8703 13.3006 16.8953 13.3279C17.5105 13.9974 17.5105 15.0265 16.8953 15.696C16.8703 15.7232 16.8394 15.7541 16.7776 15.8159L16.002 16.5915C15.3704 17.2231 14.46 17.4882 13.5881 17.2944C7.64717 15.9742 3.00746 11.3345 1.68726 5.39362C1.4935 4.52172 1.75863 3.61126 2.3902 2.97969L3.16575 2.20414Z" stroke="#111111" stroke-width="1.4"/>
</svg>
