<svg width="161" height="26" viewBox="0 0 161 26" fill="none" xmlns="http://www.w3.org/2000/svg">
<path d="M0.988 26V0.799998H6.82V21.248H19.456V26H0.988ZM19.5783 26L30.8103 0.799998H36.5703L47.8383 26H41.7183L32.5023 3.752H34.8063L25.5543 26H19.5783ZM25.1943 20.6L26.7423 16.172H39.7023L41.2863 20.6H25.1943ZM55.1298 26L46.8858 0.799998H52.9338L60.0978 23.12H57.0738L64.5618 0.799998H69.9618L77.1618 23.12H74.2458L81.5898 0.799998H87.1698L78.9258 26H72.6618L66.2898 6.416H67.9458L61.3938 26H55.1298ZM96.3379 26V15.704L97.6699 19.232L86.5819 0.799998H92.7739L101.27 14.948H97.7059L106.238 0.799998H111.962L100.874 19.232L102.17 15.704V26H96.3379ZM119.555 10.952H131.687V15.488H119.555V10.952ZM119.987 21.32H133.703V26H114.191V0.799998H133.235V5.48H119.987V21.32ZM138.343 26V0.799998H149.251C151.507 0.799998 153.451 1.172 155.083 1.916C156.715 2.636 157.975 3.68 158.863 5.048C159.751 6.416 160.195 8.048 160.195 9.944C160.195 11.816 159.751 13.436 158.863 14.804C157.975 16.148 156.715 17.18 155.083 17.9C153.451 18.62 151.507 18.98 149.251 18.98H141.583L144.175 16.424V26H138.343ZM154.363 26L148.063 16.856H154.291L160.663 26H154.363ZM144.175 17.072L141.583 14.336H148.927C150.727 14.336 152.071 13.952 152.959 13.184C153.847 12.392 154.291 11.312 154.291 9.944C154.291 8.552 153.847 7.472 152.959 6.704C152.071 5.936 150.727 5.552 148.927 5.552H141.583L144.175 2.78V17.072Z" fill="#111111"/>
</svg>
