<svg width="148" height="34" viewBox="0 0 148 34" fill="none" xmlns="http://www.w3.org/2000/svg">
<path d="M5.452 26V10.124L16.144 26H21.076V0.799998H15.748V16.676L5.056 0.799998H0.16V26H5.452ZM42.611 21.716C41.819 21.716 41.423 21.536 41.423 20.564V14.012C41.423 9.584 38.435 7.28 33.251 7.28C28.355 7.28 25.043 9.656 24.683 13.256H29.579C29.795 11.888 31.127 10.988 33.107 10.988C35.231 10.988 36.419 12.068 36.419 13.724V14.624H32.747C27.203 14.624 24.251 16.856 24.251 20.78C24.251 24.308 27.131 26.216 31.127 26.216C34.007 26.216 35.879 25.028 37.175 22.976C37.139 24.74 37.967 26 40.595 26H43.187V21.716H42.611ZM36.419 18.368C36.383 20.888 34.763 22.544 32.099 22.544C30.407 22.544 29.363 21.716 29.363 20.42C29.363 18.872 30.587 18.008 32.711 18.008H36.419V18.368ZM49.167 26H55.467L62.127 7.496H56.799L52.407 20.816L47.943 7.496H42.507L49.167 26ZM80.3688 21.716C79.5768 21.716 79.1808 21.536 79.1808 20.564V14.012C79.1808 9.584 76.1928 7.28 71.0088 7.28C66.1128 7.28 62.8008 9.656 62.4408 13.256H67.3368C67.5528 11.888 68.8848 10.988 70.8648 10.988C72.9888 10.988 74.1768 12.068 74.1768 13.724V14.624H70.5048C64.9608 14.624 62.0088 16.856 62.0088 20.78C62.0088 24.308 64.8888 26.216 68.8848 26.216C71.7648 26.216 73.6368 25.028 74.9328 22.976C74.8968 24.74 75.7248 26 78.3528 26H80.9448V21.716H80.3688ZM74.1768 18.368C74.1408 20.888 72.5208 22.544 69.8568 22.544C68.1648 22.544 67.1208 21.716 67.1208 20.42C67.1208 18.872 68.3448 18.008 70.4688 18.008H74.1768V18.368ZM84.2405 20.708C84.2405 24.236 86.0045 26 89.5325 26H93.6725V21.716H91.1525C89.8205 21.716 89.3165 21.176 89.3165 19.88V11.78H93.5645V7.496H89.3165V2.312H84.2405V7.496H81.1805V11.78H84.2405V20.708ZM113.556 21.716C112.764 21.716 112.368 21.536 112.368 20.564V14.012C112.368 9.584 109.38 7.28 104.196 7.28C99.3003 7.28 95.9883 9.656 95.6283 13.256H100.524C100.74 11.888 102.072 10.988 104.052 10.988C106.176 10.988 107.364 12.068 107.364 13.724V14.624H103.692C98.1483 14.624 95.1963 16.856 95.1963 20.78C95.1963 24.308 98.0763 26.216 102.072 26.216C104.952 26.216 106.824 25.028 108.12 22.976C108.084 24.74 108.912 26 111.54 26H114.132V21.716H113.556ZM107.364 18.368C107.328 20.888 105.708 22.544 103.044 22.544C101.352 22.544 100.308 21.716 100.308 20.42C100.308 18.872 101.532 18.008 103.656 18.008H107.364V18.368ZM126.5 7.496C123.62 7.496 122.18 8.612 121.172 10.268L120.704 7.496H116.096V26H121.172V16.928C121.172 14.12 122.324 12.104 125.348 12.104H127.364V7.496H126.5ZM135.24 26.108L134.772 27.332C134.268 28.592 133.836 28.916 132.54 28.916H129.732V33.2H134.664C137.544 33.2 138.48 31.688 139.632 28.628L147.84 7.496H142.404L138.012 20.672L133.512 7.496H128.112L135.24 26.108Z" fill="black"/>
</svg>
