<svg width="14" height="10" viewBox="0 0 14 10" fill="none" xmlns="http://www.w3.org/2000/svg">
<path d="M1.16602 5.65C0.807031 5.65 0.516016 5.35899 0.516016 5C0.516016 4.64101 0.807031 4.35 1.16602 4.35V5.65ZM13.1537 4.54038C13.4076 4.79422 13.4076 5.20578 13.1537 5.45962L9.01715 9.59619C8.76331 9.85003 8.35176 9.85003 8.09792 9.59619C7.84408 9.34235 7.84408 8.9308 8.09792 8.67696L11.7749 5L8.09792 1.32304C7.84408 1.0692 7.84408 0.657647 8.09792 0.403806C8.35176 0.149965 8.76331 0.149965 9.01715 0.403806L13.1537 4.54038ZM1.16602 4.35H12.6941V5.65H1.16602V4.35Z" fill="white"/>
</svg>
