<svg width="28" height="28" viewBox="0 0 28 28" fill="none" xmlns="http://www.w3.org/2000/svg">
<path d="M8.72656 21.4089L12.3432 24.2089C12.8099 24.6755 13.8599 24.9089 14.5599 24.9089H18.9932C20.3932 24.9089 21.9099 23.8589 22.2599 22.4589L25.0599 13.9422C25.6432 12.3089 24.5932 10.9089 22.8432 10.9089H18.1766C17.4766 10.9089 16.8932 10.3255 17.0099 9.50887L17.5932 5.77553C17.8266 4.72553 17.1266 3.55887 16.0766 3.20887C15.1432 2.85887 13.9766 3.32553 13.5099 4.02553L8.72656 11.1422" stroke="#E11439" stroke-width="2" stroke-miterlimit="10"/>
<path d="M2.77637 21.4088V9.97546C2.77637 8.34212 3.47637 7.75879 5.1097 7.75879H6.27637C7.9097 7.75879 8.6097 8.34212 8.6097 9.97546V21.4088C8.6097 23.0421 7.9097 23.6255 6.27637 23.6255H5.1097C3.47637 23.6255 2.77637 23.0421 2.77637 21.4088Z" stroke="#E11439" stroke-width="2" stroke-linecap="round" stroke-linejoin="round"/>
</svg>
