<svg width="29" height="29" viewBox="0 0 29 29" fill="none" xmlns="http://www.w3.org/2000/svg">
<path d="M14.6816 19.9375V22.475" stroke="#E11439" stroke-width="1.8" stroke-linecap="round" stroke-linejoin="round"/>
<path d="M8.63965 26.583H20.723V25.3747C20.723 24.0455 19.6355 22.958 18.3063 22.958H11.0563C9.72715 22.958 8.63965 24.0455 8.63965 25.3747V26.583V26.583Z" stroke="#E11439" stroke-width="1.8" stroke-miterlimit="10"/>
<path d="M7.43164 26.583H21.9316" stroke="#E11439" stroke-width="1.8" stroke-linecap="round" stroke-linejoin="round"/>
<path d="M14.5003 19.3337C9.82408 19.3337 6.04199 15.5516 6.04199 10.8753V7.25033C6.04199 4.57991 8.20491 2.41699 10.8753 2.41699H18.1253C20.7957 2.41699 22.9587 4.57991 22.9587 7.25033V10.8753C22.9587 15.5516 19.1766 19.3337 14.5003 19.3337Z" stroke="#E11439" stroke-width="1.8" stroke-linecap="round" stroke-linejoin="round"/>
<path d="M6.60943 14.0767C5.70318 13.7867 4.90568 13.255 4.27734 12.6267C3.18984 11.4184 2.46484 9.96836 2.46484 8.27669C2.46484 6.58503 3.79401 5.25586 5.48568 5.25586H6.27109C6.02943 5.81169 5.90859 6.42794 5.90859 7.06836V10.6934C5.90859 11.9017 6.16234 13.0375 6.60943 14.0767Z" stroke="#E11439" stroke-width="1.8" stroke-linecap="round" stroke-linejoin="round"/>
<path d="M22.3906 14.0767C23.2969 13.7867 24.0944 13.255 24.7227 12.6267C25.8102 11.4184 26.5352 9.96836 26.5352 8.27669C26.5352 6.58503 25.206 5.25586 23.5144 5.25586H22.729C22.9706 5.81169 23.0915 6.42794 23.0915 7.06836V10.6934C23.0915 11.9017 22.8377 13.0375 22.3906 14.0767Z" stroke="#E11439" stroke-width="1.8" stroke-linecap="round" stroke-linejoin="round"/>
</svg>
