<svg width="27" height="27" viewBox="0 0 27 27" fill="none" xmlns="http://www.w3.org/2000/svg">
<path d="M20.25 21.217H19.395C18.495 21.217 17.64 21.5657 17.01 22.1957L15.0863 24.097C14.2088 24.9633 12.78 24.9633 11.9025 24.097L9.97874 22.1957C9.34874 21.5657 8.4825 21.217 7.59375 21.217H6.75C4.8825 21.217 3.375 19.7207 3.375 17.8757V5.60196C3.375 3.75696 4.8825 2.26074 6.75 2.26074H20.25C22.1175 2.26074 23.625 3.75696 23.625 5.60196V17.8757C23.625 19.7095 22.1175 21.217 20.25 21.217Z" stroke="#E11439" stroke-width="2" stroke-miterlimit="10" stroke-linecap="round" stroke-linejoin="round"/>
<path d="M7.875 10.3046C7.875 9.25839 8.73 8.40332 9.77625 8.40332C10.8225 8.40332 11.6775 9.25839 11.6775 10.3046C11.6775 12.4196 8.67374 12.6446 8.00999 14.6584C7.87499 15.0746 8.22375 15.4909 8.6625 15.4909H11.6775" stroke="#E11439" stroke-width="2" stroke-linecap="round" stroke-linejoin="round"/>
<path d="M18.0455 15.48V9.05627C18.0455 8.76377 17.8542 8.50495 17.573 8.4262C17.2917 8.34745 16.988 8.45995 16.8305 8.70745C16.0205 10.0125 15.143 11.4975 14.378 12.8025C14.2542 13.0162 14.2542 13.2975 14.378 13.5112C14.5017 13.725 14.738 13.8599 14.9967 13.8599H19.1255" stroke="#E11439" stroke-width="2" stroke-linecap="round" stroke-linejoin="round"/>
</svg>
