<svg width="16" height="16" viewBox="0 0 16 16" fill="none" xmlns="http://www.w3.org/2000/svg">
<path d="M8.68815 7.31315V1.58398C8.68815 1.40165 8.61572 1.22678 8.48679 1.09785C8.35785 0.968917 8.18299 0.896484 8.00065 0.896484C7.81831 0.896484 7.64345 0.968917 7.51452 1.09785C7.38558 1.22678 7.31315 1.40165 7.31315 1.58398V7.31315H1.58398C1.40165 7.31315 1.22678 7.38558 1.09785 7.51452C0.968917 7.64345 0.896484 7.81831 0.896484 8.00065C0.896484 8.18299 0.968917 8.35785 1.09785 8.48679C1.22678 8.61572 1.40165 8.68815 1.58398 8.68815H7.31315V14.4173C7.31553 14.5989 7.38872 14.7724 7.51714 14.9008C7.64556 15.0292 7.81905 15.1024 8.00065 15.1048C8.18299 15.1048 8.35785 15.0324 8.48679 14.9035C8.61572 14.7745 8.68815 14.5997 8.68815 14.4173V8.68815H14.4173C14.5997 8.68815 14.7745 8.61572 14.9035 8.48679C15.0324 8.35785 15.1048 8.18299 15.1048 8.00065C15.1024 7.81905 15.0292 7.64556 14.9008 7.51714C14.7724 7.38872 14.5989 7.31553 14.4173 7.31315H8.68815Z" fill="#333333"/>
</svg>
