<svg width="57" height="57" viewBox="0 0 57 57" fill="none" xmlns="http://www.w3.org/2000/svg">
<path d="M37.3161 25.9438C37.3161 29.0559 34.1581 33.7007 31.651 36.8977C30.343 38.5656 29.689 39.3996 28.6327 39.3996C27.5763 39.3996 26.9223 38.5656 25.6143 36.8977C23.1072 33.7007 19.9492 29.0559 19.9492 25.9438C19.9492 20.7831 23.8369 16.5996 28.6327 16.5996C33.4284 16.5996 37.3161 20.7831 37.3161 25.9438Z" stroke="white" stroke-width="2"/>
<path d="M25.3764 26.3685C25.3764 28.1669 26.8343 29.6248 28.6327 29.6248C30.4311 29.6248 31.889 28.1669 31.889 26.3685C31.889 24.5701 30.4311 23.1122 28.6327 23.1122C26.8343 23.1122 25.3764 24.5701 25.3764 26.3685Z" stroke="white" stroke-width="2"/>
</svg>
