<svg width="14" height="10" viewBox="0 0 14 10" fill="none" xmlns="http://www.w3.org/2000/svg">
<path d="M0.943359 5.6C0.611989 5.6 0.343359 5.33137 0.343359 5C0.343359 4.66863 0.611989 4.4 0.943359 4.4V5.6ZM12.8957 4.57574C13.13 4.81005 13.13 5.18995 12.8957 5.42426L9.07734 9.24264C8.84303 9.47696 8.46313 9.47696 8.22881 9.24264C7.9945 9.00833 7.9945 8.62843 8.22881 8.39411L11.6229 5L8.22881 1.60589C7.9945 1.37157 7.9945 0.991674 8.22881 0.757359C8.46313 0.523045 8.84303 0.523045 9.07734 0.757359L12.8957 4.57574ZM0.943359 4.4H12.4715V5.6H0.943359V4.4Z" fill="white"/>
</svg>
