<svg width="14" height="10" viewBox="0 0 14 10" fill="none" xmlns="http://www.w3.org/2000/svg">
<path d="M12.8945 4.4C13.2259 4.4 13.4945 4.66863 13.4945 5C13.4945 5.33137 13.2259 5.6 12.8945 5.6V4.4ZM0.942173 5.42426C0.707858 5.18995 0.707858 4.81005 0.942173 4.57574L4.76055 0.757359C4.99486 0.523045 5.37476 0.523045 5.60908 0.757359C5.84339 0.991674 5.84339 1.37157 5.60908 1.60589L2.21497 5L5.60908 8.39411C5.84339 8.62843 5.84339 9.00833 5.60908 9.24264C5.37476 9.47696 4.99486 9.47696 4.76055 9.24264L0.942173 5.42426ZM12.8945 5.6L1.36644 5.6V4.4L12.8945 4.4V5.6Z" fill="white"/>
</svg>
