<svg width="11" height="11" viewBox="0 0 11 11" fill="none" xmlns="http://www.w3.org/2000/svg">
<path d="M10.577 0.152363C10.4748 0.0847631 10.3605 0.0383461 10.2407 0.0157639C10.1209 -0.00681835 9.99785 -0.00512325 9.87867 0.0207523C9.75949 0.0466279 9.64647 0.0961769 9.54609 0.166569C9.4457 0.236961 9.35991 0.326816 9.29361 0.431002L4.09376 8.59821L1.55786 6.20898C1.46839 6.12468 1.3635 6.05916 1.24919 6.01617C1.13487 5.97318 1.01336 5.95355 0.891599 5.95841C0.645691 5.96823 0.41368 6.07718 0.246607 6.2613C0.0795327 6.44542 -0.00891837 6.68963 0.000711425 6.94021C0.0103412 7.19078 0.117263 7.4272 0.297956 7.59744L3.62759 10.7343C3.62759 10.7343 3.72318 10.8182 3.76741 10.8475C3.86964 10.9151 3.98395 10.9616 4.10381 10.9842C4.22367 11.0068 4.34672 11.0051 4.46594 10.9793C4.58516 10.9534 4.69821 10.9038 4.79862 10.8334C4.89903 10.763 4.98484 10.6731 5.05114 10.5689L10.8505 1.46014C10.9168 1.35598 10.9624 1.23953 10.9845 1.11742C11.0067 0.995324 11.005 0.869971 10.9796 0.748525C10.9542 0.62708 10.9056 0.511922 10.8365 0.409631C10.7675 0.30734 10.6793 0.219919 10.577 0.152363Z" fill="#E11439"/>
</svg>
