<svg width="29" height="29" viewBox="0 0 29 29" fill="none" xmlns="http://www.w3.org/2000/svg">
<path d="M23.9884 19.3302L18.2428 20.6986C17.8992 20.7712 17.5442 20.7712 17.2006 20.6986L14.4184 20.1639C14.2796 20.1431 14.1523 20.0749 14.0581 19.9708C13.9639 19.8667 13.9087 19.7332 13.9019 19.593C13.9065 19.5108 13.9273 19.4304 13.9631 19.3563C13.9989 19.2821 14.0489 19.2158 14.1104 19.1611C14.1718 19.1064 14.2435 19.0643 14.3212 19.0373C14.399 19.0104 14.4813 18.999 14.5634 19.0039H15.4062C16.0071 19.0039 16.5834 18.7652 17.0083 18.3403C17.4332 17.9154 17.6719 17.3392 17.6719 16.7383C17.6719 16.1374 17.4332 15.5611 17.0083 15.1362C16.5834 14.7114 16.0071 14.4727 15.4062 14.4727H12.7872C12.2033 14.4729 11.6227 14.5616 11.0653 14.7355L7.18656 15.9952C7.1223 15.8231 7.0073 15.6747 6.85679 15.5695C6.70628 15.4643 6.52737 15.4073 6.34375 15.4061H2.71875C2.4784 15.4061 2.24789 15.5016 2.07793 15.6715C1.90798 15.8415 1.8125 16.072 1.8125 16.3123V19.0311C1.8125 19.2714 1.90798 19.502 2.07793 19.6719C2.24789 19.8419 2.4784 19.9373 2.71875 19.9373C2.9591 19.9373 3.18961 19.8419 3.35957 19.6719C3.52952 19.502 3.625 19.2714 3.625 19.0311V17.2186H5.4375V25.3748H3.625V22.6561C3.625 22.4157 3.52952 22.1852 3.35957 22.0153C3.18961 21.8453 2.9591 21.7498 2.71875 21.7498C2.4784 21.7498 2.24789 21.8453 2.07793 22.0153C1.90798 22.1852 1.8125 22.4157 1.8125 22.6561V26.2811C1.8125 26.5214 1.90798 26.752 2.07793 26.9219C2.24789 27.0919 2.4784 27.1873 2.71875 27.1873H6.34375C6.56779 27.1887 6.78439 27.107 6.95175 26.9581C7.11911 26.8091 7.22536 26.6035 7.25 26.3808L12.4156 26.9245C12.8789 26.9785 13.3449 27.0058 13.8112 27.0061C15.0389 27.0016 16.2596 26.8215 17.4362 26.4714L20.155 25.6739C20.2768 25.6487 20.3921 25.5987 20.4937 25.527C20.5953 25.4554 20.6811 25.3635 20.7457 25.2573C20.8103 25.151 20.8524 25.0326 20.8692 24.9094C20.8861 24.7862 20.8774 24.6608 20.8438 24.5411C20.7745 24.312 20.6176 24.1196 20.407 24.0059C20.1965 23.8921 19.9495 23.8663 19.72 23.9339L17.0013 24.7314C15.5885 25.149 14.1073 25.2845 12.6422 25.1302L7.25 24.5592V17.8802L11.6181 16.4936C11.9963 16.3739 12.3905 16.3128 12.7872 16.3123H15.4062C15.5264 16.3123 15.6417 16.3601 15.7267 16.4451C15.8116 16.53 15.8594 16.6453 15.8594 16.7655C15.8594 16.8856 15.8116 17.0009 15.7267 17.0859C15.6417 17.1709 15.5264 17.2186 15.4062 17.2186H14.5997C13.9812 17.1782 13.3711 17.3795 12.898 17.78C12.4249 18.1805 12.1257 18.749 12.0635 19.3657C12.0012 19.9824 12.1807 20.5992 12.5642 21.0862C12.9477 21.5732 13.5052 21.8923 14.1194 21.9764L16.8925 22.502C17.49 22.629 18.1075 22.629 18.705 22.502L24.4506 21.1245C24.6058 21.0866 24.7688 21.0957 24.9188 21.1506C25.0689 21.2054 25.1993 21.3036 25.2934 21.4327C25.3519 21.5143 25.3898 21.6088 25.404 21.7082C25.4182 21.8075 25.4082 21.9089 25.375 22.0036C25.3355 22.1142 25.2693 22.2134 25.1824 22.2924C25.0955 22.3715 24.9904 22.4279 24.8766 22.4567L23.345 22.9008C23.1046 22.9344 22.8875 23.0622 22.7413 23.2559C22.5952 23.4497 22.532 23.6936 22.5656 23.9339C22.5993 24.1743 22.727 24.3914 22.9208 24.5376C23.1145 24.6837 23.3584 24.7469 23.5988 24.7133C23.6828 24.7265 23.7684 24.7265 23.8525 24.7133L25.3931 24.2692C25.7804 24.1539 26.1353 23.9496 26.4296 23.6726C26.7238 23.3957 26.9492 23.0538 27.0878 22.6742C27.2163 22.3077 27.2554 21.9159 27.2018 21.5312C27.1482 21.1466 27.0035 20.7804 26.7797 20.463C26.4867 20.0108 26.0617 19.6596 25.5625 19.457C25.0632 19.2543 24.5137 19.2101 23.9884 19.3302Z" fill="#E11439"/>
<path d="M26.2812 7.25H25.375V5.32875C25.375 4.87845 25.1967 4.44647 24.8792 4.12721C24.5616 3.80795 24.1306 3.6274 23.6803 3.625H19.9375V2.71875C19.9375 2.4784 19.842 2.24789 19.6721 2.07793C19.5021 1.90798 19.2716 1.8125 19.0312 1.8125C18.7909 1.8125 18.5604 1.90798 18.3904 2.07793C18.2205 2.24789 18.125 2.4784 18.125 2.71875V3.625H14.3913C13.9394 3.625 13.506 3.8045 13.1865 4.12402C12.867 4.44353 12.6875 4.87689 12.6875 5.32875V7.25H11.7812C11.5409 7.25 11.3104 7.34548 11.1404 7.51543C10.9705 7.68539 10.875 7.9159 10.875 8.15625V9.0625C10.875 9.78356 11.1614 10.4751 11.6713 10.9849C12.1812 11.4948 12.8727 11.7812 13.5938 11.7812C14.3148 11.7812 15.0063 11.4948 15.5162 10.9849C16.0261 10.4751 16.3125 9.78356 16.3125 9.0625V8.15625C16.3125 7.9159 16.217 7.68539 16.0471 7.51543C15.8771 7.34548 15.6466 7.25 15.4062 7.25H14.5V5.4375H18.125V12.6875C17.8846 12.6875 17.6541 12.783 17.4842 12.9529C17.3142 13.1229 17.2188 13.3534 17.2188 13.5938C17.2188 13.8341 17.3142 14.0646 17.4842 14.2346C17.6541 14.4045 17.8846 14.5 18.125 14.5H19.9375C20.1779 14.5 20.4084 14.4045 20.5783 14.2346C20.7483 14.0646 20.8438 13.8341 20.8438 13.5938C20.8438 13.3534 20.7483 13.1229 20.5783 12.9529C20.4084 12.783 20.1779 12.6875 19.9375 12.6875V5.4375H23.5625V7.25H22.6562C22.4159 7.25 22.1854 7.34548 22.0154 7.51543C21.8455 7.68539 21.75 7.9159 21.75 8.15625V9.0625C21.75 9.78356 22.0364 10.4751 22.5463 10.9849C23.0562 11.4948 23.7477 11.7812 24.4688 11.7812C25.1898 11.7812 25.8813 11.4948 26.3912 10.9849C26.9011 10.4751 27.1875 9.78356 27.1875 9.0625V8.15625C27.1875 7.9159 27.092 7.68539 26.9221 7.51543C26.7521 7.34548 26.5216 7.25 26.2812 7.25ZM13.5938 9.96875C13.3534 9.96875 13.1229 9.87327 12.9529 9.70332C12.783 9.53336 12.6875 9.30285 12.6875 9.0625H14.5C14.5 9.30285 14.4045 9.53336 14.2346 9.70332C14.0646 9.87327 13.8341 9.96875 13.5938 9.96875ZM24.4688 9.96875C24.2284 9.96875 23.9979 9.87327 23.8279 9.70332C23.658 9.53336 23.5625 9.30285 23.5625 9.0625H25.375C25.375 9.30285 25.2795 9.53336 25.1096 9.70332C24.9396 9.87327 24.7091 9.96875 24.4688 9.96875Z" fill="#E11439"/>
<rect x="1.8125" y="16.3125" width="1.8125" height="9.96875" fill="#E11439"/>
</svg>
