<svg width="17" height="25" viewBox="0 0 17 25" fill="none" xmlns="http://www.w3.org/2000/svg">
<path d="M9.34359 10.8125C9.34359 10.5887 9.25469 10.3741 9.09646 10.2159C8.93822 10.0576 8.72361 9.96875 8.49984 9.96875C7.54982 9.91005 6.66163 9.47778 6.02927 8.76637C5.3969 8.05497 5.07175 7.12223 5.12483 6.17188C5.07175 5.22152 5.3969 4.28878 6.02927 3.57738C6.66163 2.86597 7.54982 2.4337 8.49984 2.375C9.44985 2.4337 10.338 2.86597 10.9704 3.57738C11.6028 4.28878 11.9279 5.22152 11.8748 6.17188C11.8809 7.05164 11.6028 7.90985 11.0817 8.61875C11.0152 8.70739 10.9669 8.80826 10.9394 8.9156C10.9119 9.02293 10.9058 9.13463 10.9214 9.24432C10.9371 9.35401 10.9742 9.45954 11.0307 9.55489C11.0871 9.65023 11.1618 9.73352 11.2505 9.8C11.3391 9.86648 11.44 9.91485 11.5473 9.94235C11.6546 9.96985 11.7663 9.97594 11.876 9.96027C11.9857 9.9446 12.0913 9.90748 12.1866 9.85103C12.2819 9.79457 12.3652 9.71989 12.4317 9.63125C13.1691 8.62886 13.5654 7.41629 13.5623 6.17188C13.6149 4.77417 13.1118 3.41252 12.1631 2.38475C11.2144 1.35698 9.89728 0.746743 8.49984 0.6875C7.10239 0.746743 5.78528 1.35698 4.83657 2.38475C3.88786 3.41252 3.38477 4.77417 3.43733 6.17188C3.38477 7.56958 3.88786 8.93123 4.83657 9.959C5.78528 10.9868 7.10239 11.597 8.49984 11.6562C8.72361 11.6562 8.93822 11.5674 9.09646 11.4091C9.25469 11.2509 9.34359 11.0363 9.34359 10.8125Z" fill="#E11439"/>
<path d="M16.3214 15.875C16.2444 14.7319 15.7365 13.6606 14.9001 12.8775C14.0638 12.0944 12.9614 11.6579 11.8157 11.6562H5.18386C4.03815 11.6579 2.93578 12.0944 2.09946 12.8775C1.26313 13.6606 0.755186 14.7319 0.678236 15.875L0.0622989 23.4012C0.0475435 23.6356 0.126449 23.8663 0.281674 24.0425C0.36131 24.1284 0.45795 24.1967 0.565446 24.2432C0.672941 24.2897 0.788936 24.3133 0.906049 24.3125H10.1873C10.4111 24.3125 10.6257 24.2236 10.7839 24.0654C10.9422 23.9071 11.031 23.6925 11.031 23.4688C11.031 23.245 10.9422 23.0304 10.7839 22.8721C10.6257 22.7139 10.4111 22.625 10.1873 22.625H9.34355V18.3303C10.075 18.2016 10.7693 17.9136 11.377 17.4866L12.7185 23.6544V23.7303L12.7692 23.8484C12.796 23.9034 12.83 23.9544 12.8704 24.0003L12.9548 24.0931C13.0034 24.1363 13.0572 24.1732 13.1151 24.2028L13.2079 24.2534C13.3204 24.2983 13.4413 24.3185 13.5623 24.3125H16.0935C16.2107 24.3133 16.3267 24.2897 16.4342 24.2432C16.5416 24.1967 16.6383 24.1284 16.7179 24.0425C16.8731 23.8663 16.9521 23.6356 16.9373 23.4012L16.3214 15.875ZM4.50886 22.625L5.64792 17.495C6.25314 17.9209 6.94437 18.2089 7.67292 18.3387V22.625H4.50886ZM8.4998 16.7188C7.97727 16.7174 7.46219 16.5948 6.99512 16.3606C6.52805 16.1263 6.12175 15.7868 5.80824 15.3687C5.76906 15.3177 5.72034 15.2747 5.6648 15.2422L5.5973 15.1831C5.53019 15.1376 5.45609 15.1034 5.37792 15.0819H5.31042H4.95605C4.90929 15.0936 4.864 15.1106 4.82105 15.1325C4.75969 15.1555 4.70041 15.1837 4.64386 15.2169L4.60167 15.2675C4.53257 15.3198 4.4751 15.3859 4.43292 15.4616C4.43292 15.4616 4.43292 15.4616 4.43292 15.5122C4.39518 15.5734 4.36407 15.6384 4.34011 15.7062L2.7623 22.625H1.8173L2.36574 15.9847C2.41283 15.2691 2.73015 14.5982 3.25341 14.1078C3.77667 13.6175 4.46675 13.3443 5.18386 13.3438H11.8748C11.8748 14.2389 11.5192 15.0973 10.8863 15.7302C10.2533 16.3632 9.3949 16.7188 8.4998 16.7188ZM14.2373 22.625L12.7776 16.0438C13.1941 15.4084 13.4623 14.6875 13.5623 13.9344C13.8831 14.1785 14.1477 14.4886 14.3384 14.8438C14.5291 15.1989 14.6413 15.5909 14.6676 15.9931L15.1823 22.625H14.2373Z" fill="#E11439"/>
</svg>
