<svg width="26" height="26" viewBox="0 0 26 26" fill="none" xmlns="http://www.w3.org/2000/svg">
<path d="M22.1487 8.53125C22.0979 8.43415 22.028 8.34833 21.9432 8.27895C21.8583 8.20957 21.7604 8.15807 21.6551 8.12754C21.5499 8.09701 21.4396 8.08808 21.3308 8.10129C21.222 8.11451 21.117 8.14959 21.0221 8.20443C20.9273 8.25927 20.8445 8.33273 20.7787 8.4204C20.713 8.50807 20.6656 8.60813 20.6396 8.71456C20.6135 8.821 20.6092 8.9316 20.627 9.03973C20.6448 9.14786 20.6843 9.25127 20.7431 9.34375C21.6327 10.8731 22.0484 12.632 21.9375 14.3978C21.8267 16.1635 21.1942 17.8567 20.1203 19.2627C19.0464 20.6687 17.5793 21.7244 15.905 22.296C14.2306 22.8676 12.4242 22.9293 10.7147 22.4735C9.00522 22.0176 7.46948 21.0646 6.30203 19.7352C5.13458 18.4058 4.38796 16.7598 4.15674 15.0058C3.92552 13.2517 4.22011 11.4685 5.00318 9.88195C5.78626 8.29544 7.02259 6.97704 8.55557 6.09375C8.71256 5.99984 8.83327 5.85569 8.89815 5.68464C8.96303 5.51359 8.96828 5.32566 8.91307 5.15125C8.93592 5.06106 8.94415 4.96779 8.93744 4.875V3.63187C8.93744 3.5306 8.97767 3.43346 9.04929 3.36185C9.12091 3.29023 9.21804 3.25 9.31932 3.25H16.6806C16.7818 3.25 16.879 3.29023 16.9506 3.36185C17.0222 3.43346 17.0624 3.5306 17.0624 3.63187V6.93062C17.0624 7.0319 17.0222 7.12904 16.9506 7.20065C16.879 7.27227 16.7818 7.3125 16.6806 7.3125H12.9999C12.7845 7.3125 12.5778 7.3981 12.4254 7.55048C12.273 7.70285 12.1874 7.90951 12.1874 8.125C12.1874 8.34049 12.273 8.54715 12.4254 8.69952C12.5778 8.8519 12.7845 8.9375 12.9999 8.9375C14.13 8.93849 15.2245 9.33202 16.0965 10.0508C16.9685 10.7696 17.5637 11.7689 17.7803 12.878C17.9969 13.9871 17.8215 15.1369 17.2841 16.131C16.7466 17.125 15.8806 17.9015 14.834 18.3276C13.7874 18.7537 12.6252 18.803 11.5463 18.4671C10.4674 18.1311 9.53869 17.4308 8.91902 16.4858C8.29935 15.5408 8.02721 14.4099 8.14913 13.2865C8.27106 12.1631 8.77948 11.1169 9.58744 10.3269C9.67297 10.2546 9.74264 10.1655 9.79209 10.065C9.84154 9.96459 9.86969 9.85501 9.87479 9.74317C9.87989 9.63133 9.86181 9.51964 9.82171 9.41511C9.7816 9.31058 9.72032 9.21547 9.64172 9.13575C9.56311 9.05602 9.46888 8.9934 9.36494 8.95182C9.26099 8.91023 9.14957 8.89057 9.03766 8.89408C8.92576 8.89759 8.81579 8.92419 8.71465 8.97221C8.61352 9.02023 8.52339 9.08863 8.44994 9.17312C7.82951 9.77548 7.33702 10.4968 7.00196 11.294C6.66689 12.0912 6.49615 12.9478 6.49994 13.8125C6.49789 14.9047 6.7711 15.9798 7.29432 16.9385C7.81755 17.8972 8.57392 18.7087 9.49358 19.2978C10.4132 19.887 11.4665 20.235 12.5562 20.3095C13.6458 20.3841 14.7367 20.1829 15.7281 19.7245C16.7194 19.266 17.5793 18.5652 18.2282 17.6867C18.8771 16.8082 19.2942 15.7803 19.441 14.698C19.5877 13.6157 19.4594 12.5139 19.0678 11.4943C18.6762 10.4747 18.0341 9.57021 17.2006 8.86438C17.6257 8.74891 18.0013 8.4973 18.2699 8.14805C18.5384 7.7988 18.6851 7.37117 18.6874 6.93062V3.63187C18.6853 3.10028 18.4732 2.59106 18.0973 2.21516C17.7214 1.83926 17.2122 1.62714 16.6806 1.625H9.31932C8.78772 1.62714 8.2785 1.83926 7.90261 2.21516C7.52671 2.59106 7.31458 3.10028 7.31244 3.63187V4.875C5.56785 5.98579 4.18775 7.58431 3.34333 9.47228C2.49892 11.3602 2.22735 13.4546 2.56231 15.4955C2.89727 17.5364 3.82402 19.434 5.2276 20.953C6.63118 22.472 8.44983 23.5456 10.4579 24.0405C12.4661 24.5353 14.5753 24.4298 16.524 23.7369C18.4727 23.044 20.175 21.7943 21.42 20.1428C22.6649 18.4912 23.3976 16.5105 23.5271 14.4464C23.6567 12.3822 23.1774 10.3255 22.1487 8.53125Z" fill="#E11439"/>
<path d="M13 6.5C13.2155 6.5 13.4222 6.4144 13.5745 6.26202C13.7269 6.10965 13.8125 5.90299 13.8125 5.6875V4.875C13.8125 4.65951 13.7269 4.45285 13.5745 4.30048C13.4222 4.1481 13.2155 4.0625 13 4.0625C12.7845 4.0625 12.5778 4.1481 12.4255 4.30048C12.2731 4.45285 12.1875 4.65951 12.1875 4.875V5.6875C12.1875 5.90299 12.2731 6.10965 12.4255 6.26202C12.5778 6.4144 12.7845 6.5 13 6.5Z" fill="#E11439"/>
</svg>
