<svg width="20" height="29" viewBox="0 0 20 29" fill="none" xmlns="http://www.w3.org/2000/svg">
<path d="M4.99991 2.7092e-06C4.35416 -0.000410678 3.7155 0.134552 3.12512 0.396183C2.53475 0.657814 2.00578 1.0403 1.57234 1.51897C1.1389 1.99764 0.810616 2.56185 0.608674 3.17522C0.406733 3.78858 0.335616 4.43746 0.399911 5.08L0.599911 7.08C0.613043 7.21132 0.651913 7.33877 0.7143 7.45507C0.776687 7.57137 0.861371 7.67425 0.963515 7.75782C1.06566 7.84139 1.18326 7.90403 1.30962 7.94215C1.43597 7.98027 1.56859 7.99313 1.69991 7.98C1.83123 7.96687 1.95868 7.928 2.07498 7.86561C2.19128 7.80323 2.29416 7.71854 2.37773 7.6164C2.4613 7.51425 2.52394 7.39665 2.56206 7.2703C2.60018 7.14395 2.61304 7.01132 2.59991 6.88L2.38991 4.88C2.35503 4.51829 2.39666 4.15328 2.5121 3.80871C2.62753 3.46414 2.81418 3.14771 3.05991 2.88C3.3102 2.6174 3.6112 2.40834 3.94467 2.2655C4.27814 2.12265 4.63714 2.049 4.99991 2.049C5.36269 2.049 5.72169 2.12265 6.05516 2.2655C6.38863 2.40834 6.68962 2.6174 6.93991 2.88C7.18565 3.14771 7.37229 3.46414 7.48773 3.80871C7.60316 4.15328 7.64479 4.51829 7.60991 4.88L7.09991 10H1.99991C1.73469 10 1.48034 10.1054 1.2928 10.2929C1.10527 10.4804 0.999911 10.7348 0.999911 11C0.999911 11.2652 1.10527 11.5196 1.2928 11.7071C1.48034 11.8946 1.73469 12 1.99991 12H7.99991C8.24868 12.0012 8.48898 11.9097 8.67389 11.7433C8.8588 11.5769 8.97504 11.3475 8.99991 11.1L9.59991 5.1C9.6672 4.45589 9.59831 3.80483 9.39773 3.18906C9.19714 2.57329 8.86934 2.00657 8.43559 1.52567C8.00183 1.04477 7.47182 0.660432 6.87994 0.397597C6.28806 0.134763 5.64753 -0.000698595 4.99991 2.7092e-06Z" fill="#E11439"/>
<path d="M7.99981 13H1.99981C1.84116 13.0007 1.68496 13.0392 1.54412 13.1122C1.40327 13.1853 1.28183 13.2908 1.18981 13.42C1.09688 13.5482 1.03573 13.6967 1.0114 13.8531C0.987056 14.0096 1.00022 14.1696 1.04981 14.32L1.41981 15.42C1.66843 16.1732 2.14824 16.8287 2.79099 17.2934C3.43374 17.7581 4.20667 18.0083 4.99981 18.0083C5.79295 18.0083 6.56588 17.7581 7.20863 17.2934C7.85138 16.8287 8.3312 16.1732 8.57981 15.42L8.94981 14.32C8.9994 14.1696 9.01257 14.0096 8.98823 13.8531C8.96389 13.6967 8.90274 13.5482 8.80981 13.42C8.71779 13.2908 8.59635 13.1853 8.4555 13.1122C8.31466 13.0392 8.15846 13.0007 7.99981 13ZM4.99981 16C4.66595 16.0012 4.33857 15.9079 4.05546 15.731C3.77234 15.554 3.54505 15.3006 3.39981 15H6.59981C6.45457 15.3006 6.22728 15.554 5.94417 15.731C5.66105 15.9079 5.33367 16.0012 4.99981 16Z" fill="#E11439"/>
<path d="M12.3798 21.9997H14.9998C15.265 21.9997 15.5193 21.8943 15.7069 21.7068C15.8944 21.5193 15.9998 21.2649 15.9998 20.9997C15.9998 20.7345 15.8944 20.4801 15.7069 20.2926C15.5193 20.105 15.265 19.9997 14.9998 19.9997H13.2798L12.7698 14.8797C12.7349 14.518 12.7765 14.153 12.892 13.8084C13.0074 13.4638 13.194 13.1474 13.4398 12.8797C13.6901 12.6171 13.9911 12.408 14.3245 12.2652C14.658 12.1223 15.017 12.0487 15.3798 12.0487C15.7425 12.0487 16.1015 12.1223 16.435 12.2652C16.7685 12.408 17.0695 12.6171 17.3198 12.8797C17.5655 13.1474 17.7521 13.4638 17.8676 13.8084C17.983 14.153 18.0246 14.518 17.9898 14.8797L17.3798 20.8797C17.366 21.0111 17.3783 21.144 17.4162 21.2706C17.4541 21.3973 17.5166 21.5151 17.6003 21.6174C17.684 21.7197 17.7872 21.8044 17.9038 21.8666C18.0204 21.9287 18.1482 21.9672 18.2798 21.9797H18.3798C18.6285 21.9809 18.8688 21.8894 19.0537 21.723C19.2387 21.5566 19.3549 21.3272 19.3798 21.0797L19.9798 15.0797C20.0395 14.4396 19.965 13.794 19.761 13.1843C19.557 12.5746 19.228 12.0142 18.795 11.539C18.3621 11.0637 17.8347 10.684 17.2466 10.4242C16.6585 10.1645 16.0227 10.0303 15.3798 10.0303C14.7369 10.0303 14.101 10.1645 13.5129 10.4242C12.9248 10.684 12.3974 11.0637 11.9645 11.539C11.5315 12.0142 11.2025 12.5746 10.9985 13.1843C10.7945 13.794 10.72 14.4396 10.7798 15.0797L11.3798 21.0797C11.3999 21.3308 11.5141 21.5651 11.6995 21.7356C11.8849 21.9062 12.1278 22.0005 12.3798 21.9997Z" fill="#E11439"/>
<path d="M18.3797 23H12.3797C12.221 23.0007 12.0648 23.0392 11.924 23.1122C11.7832 23.1853 11.6617 23.2908 11.5697 23.42C11.4768 23.5482 11.4156 23.6967 11.3913 23.8531C11.3669 24.0096 11.3801 24.1696 11.4297 24.32L11.7997 25.42C12.0483 26.1732 12.5281 26.8287 13.1709 27.2934C13.8136 27.7581 14.5866 28.0083 15.3797 28.0083C16.1728 28.0083 16.9458 27.7581 17.5885 27.2934C18.2313 26.8287 18.7111 26.1732 18.9597 25.42L19.3297 24.32C19.3793 24.1696 19.3924 24.0096 19.3681 23.8531C19.3438 23.6967 19.2826 23.5482 19.1897 23.42C19.0977 23.2908 18.9762 23.1853 18.8354 23.1122C18.6945 23.0392 18.5383 23.0007 18.3797 23ZM15.3797 26C15.0458 26.0012 14.7185 25.9079 14.4353 25.731C14.1522 25.554 13.9249 25.3006 13.7797 25H16.9997C16.853 25.3037 16.6226 25.5592 16.3356 25.7364C16.0486 25.9135 15.7169 26.005 15.3797 26Z" fill="#E11439"/>
</svg>
