<svg width="25" height="22" viewBox="0 0 25 22" fill="none" xmlns="http://www.w3.org/2000/svg">
<path d="M23.2143 3.57143H16.9643V2.49107C16.9643 1.8304 16.7018 1.19678 16.2347 0.729618C15.7675 0.262451 15.1339 0 14.4732 0H10.5268C9.86611 0 9.2325 0.262451 8.76533 0.729618C8.29817 1.19678 8.03571 1.8304 8.03571 2.49107V3.57143H1.78571C1.31211 3.57143 0.85791 3.75957 0.523023 4.09445C0.188137 4.42934 0 4.88354 0 5.35714C0.00337091 5.50569 0.0465386 5.65061 0.125 5.77679C0.0339464 5.9352 -0.0063145 6.11773 0.00965191 6.29975C0.0256183 6.48177 0.0970432 6.6545 0.214286 6.79464C2.70575 9.65278 6.09234 11.5821 9.82143 12.2679V12.9732C9.82378 13.5574 10.0569 14.117 10.47 14.53C10.883 14.9431 11.4426 15.1762 12.0268 15.1786H12.9732C13.5574 15.1762 14.117 14.9431 14.53 14.53C14.9431 14.117 15.1762 13.5574 15.1786 12.9732V10.2411C15.1762 9.6569 14.9431 9.09732 14.53 8.68425C14.117 8.27117 13.5574 8.03806 12.9732 8.03571H12.0268C11.4426 8.03806 10.883 8.27117 10.47 8.68425C10.0569 9.09732 9.82378 9.6569 9.82143 10.2411V10.4554C6.68847 9.79851 3.8423 8.17078 1.6875 5.80357C1.75842 5.6658 1.79227 5.51195 1.78571 5.35714H23.2143V5.875C21.8449 7.34841 20.2011 8.54035 18.375 9.38393C18.2681 9.43297 18.172 9.50263 18.0921 9.58892C18.0122 9.67522 17.9502 9.77644 17.9095 9.88678C17.8689 9.99712 17.8504 10.1144 17.8552 10.2319C17.86 10.3494 17.888 10.4648 17.9375 10.5714C18.0092 10.7264 18.1239 10.8576 18.2679 10.9494C18.4119 11.0411 18.5792 11.0897 18.75 11.0893C18.8792 11.0884 19.0068 11.061 19.125 11.0089C20.6059 10.3152 21.9799 9.41317 23.2054 8.33036L23.2143 19.6429H1.78571V10.7143C1.78571 10.4775 1.69165 10.2504 1.5242 10.0829C1.35676 9.9155 1.12966 9.82143 0.892857 9.82143C0.656057 9.82143 0.428955 9.9155 0.261512 10.0829C0.0940686 10.2504 0 10.4775 0 10.7143V19.6429C0 20.1165 0.188137 20.5707 0.523023 20.9055C0.85791 21.2404 1.31211 21.4286 1.78571 21.4286H23.2143C23.6879 21.4286 24.1421 21.2404 24.477 20.9055C24.8119 20.5707 25 20.1165 25 19.6429V5.35714C25 4.88354 24.8119 4.42934 24.477 4.09445C24.1421 3.75957 23.6879 3.57143 23.2143 3.57143ZM11.6071 10.2411C11.6071 10.1298 11.6514 10.023 11.7301 9.94434C11.8088 9.86564 11.9155 9.82143 12.0268 9.82143H12.9732C13.0845 9.82143 13.1912 9.86564 13.2699 9.94434C13.3486 10.023 13.3929 10.1298 13.3929 10.2411V12.9732C13.3929 13.0845 13.3486 13.1912 13.2699 13.2699C13.1912 13.3486 13.0845 13.3929 12.9732 13.3929H12.0268C11.9155 13.3929 11.8088 13.3486 11.7301 13.2699C11.6514 13.1912 11.6071 13.0845 11.6071 12.9732V10.2411ZM9.82143 2.49107C9.82143 2.304 9.89574 2.12459 10.028 1.99231C10.1603 1.86003 10.3397 1.78571 10.5268 1.78571H14.4732C14.6603 1.78571 14.8397 1.86003 14.972 1.99231C15.1043 2.12459 15.1786 2.304 15.1786 2.49107V3.57143H9.82143V2.49107Z" fill="#E11439"/>
<rect y="4.62988" width="1.75926" height="14.8148" rx="0.87963" fill="#E11439"/>
</svg>
