<svg width="26" height="26" viewBox="0 0 26 26" fill="none" xmlns="http://www.w3.org/2000/svg">
<path d="M21.9375 4.875H21.125V2.4375C21.125 2.22201 21.0394 2.01535 20.887 1.86298C20.7347 1.7106 20.528 1.625 20.3125 1.625H5.6875C5.47201 1.625 5.26535 1.7106 5.11298 1.86298C4.9606 2.01535 4.875 2.22201 4.875 2.4375V4.875H4.0625C3.84701 4.875 3.64035 4.9606 3.48798 5.11298C3.3356 5.26535 3.25 5.47201 3.25 5.6875C3.25 5.90299 3.3356 6.10965 3.48798 6.26202C3.64035 6.4144 3.84701 6.5 4.0625 6.5H19.5V22.2381C19.5 22.3739 19.4461 22.5041 19.3501 22.6001C19.2541 22.6961 19.1239 22.75 18.9881 22.75H7.01188C6.87612 22.75 6.74592 22.6961 6.64992 22.6001C6.55393 22.5041 6.5 22.3739 6.5 22.2381V9.75C6.5 9.53451 6.4144 9.32785 6.26202 9.17548C6.10965 9.0231 5.90299 8.9375 5.6875 8.9375C5.47201 8.9375 5.26535 9.0231 5.11298 9.17548C4.9606 9.32785 4.875 9.53451 4.875 9.75V22.2381C4.875 22.8049 5.10013 23.3484 5.50088 23.7491C5.6993 23.9475 5.93487 24.105 6.19413 24.2123C6.45339 24.3197 6.73126 24.375 7.01188 24.375H18.9881C19.5549 24.375 20.0984 24.1499 20.4991 23.7491C20.8999 23.3484 21.125 22.8049 21.125 22.2381V6.5H21.9375C22.153 6.5 22.3597 6.4144 22.512 6.26202C22.6644 6.10965 22.75 5.90299 22.75 5.6875C22.75 5.47201 22.6644 5.26535 22.512 5.11298C22.3597 4.9606 22.153 4.875 21.9375 4.875ZM6.5 4.875V3.25H19.5V4.875H6.5Z" fill="#E11439"/>
<path d="M13.8125 21.9375C14.028 21.9375 14.2347 21.8519 14.387 21.6995C14.5394 21.5472 14.625 21.3405 14.625 21.125V18.6875C14.625 18.472 14.5394 18.2653 14.387 18.113C14.2347 17.9606 14.028 17.875 13.8125 17.875H8.9375C8.72201 17.875 8.51535 17.9606 8.36298 18.113C8.2106 18.2653 8.125 18.472 8.125 18.6875V21.125C8.125 21.3405 8.2106 21.5472 8.36298 21.6995C8.51535 21.8519 8.72201 21.9375 8.9375 21.9375H11.375C11.5905 21.9375 11.7972 21.8519 11.9495 21.6995C12.1019 21.5472 12.1875 21.3405 12.1875 21.125C12.1875 20.9095 12.1019 20.7028 11.9495 20.5505C11.7972 20.3981 11.5905 20.3125 11.375 20.3125H9.75V19.5H13V21.125C13 21.3405 13.0856 21.5472 13.238 21.6995C13.3903 21.8519 13.597 21.9375 13.8125 21.9375Z" fill="#E11439"/>
</svg>
