<svg width="24" height="25" viewBox="0 0 24 25" fill="none" xmlns="http://www.w3.org/2000/svg">
<path d="M0.00618935 12.8998C-0.00244141 12.8448 -0.00244141 12.7889 0.00618935 12.7339C0.00174904 12.6756 0.00174904 12.6171 0.00618935 12.5588L3.24956 4.60706H1.84901C1.60464 4.60706 1.37027 4.50998 1.19748 4.33718C1.02468 4.16438 0.927601 3.93002 0.927601 3.68565C0.927601 3.44127 1.02468 3.20691 1.19748 3.03411C1.37027 2.86131 1.60464 2.76423 1.84901 2.76423H11.0631V0.921412C11.0631 0.677038 11.1602 0.442673 11.333 0.269875C11.5058 0.097077 11.7402 0 11.9845 0C12.2289 0 12.4633 0.097077 12.6361 0.269875C12.8089 0.442673 12.906 0.677038 12.906 0.921412V2.76423H22.1201C22.3644 2.76423 22.5988 2.86131 22.7716 3.03411C22.9444 3.20691 23.0415 3.44127 23.0415 3.68565C23.0415 3.93002 22.9444 4.16438 22.7716 4.33718C22.5988 4.50998 22.3644 4.60706 22.1201 4.60706H20.7195L23.8984 12.5588C23.9028 12.6171 23.9028 12.6756 23.8984 12.7339C23.929 12.7852 23.9508 12.8413 23.9629 12.8998V13.8212C23.9628 14.8353 23.6282 15.8211 23.0108 16.6256C22.3934 17.4302 21.5278 18.0086 20.5482 18.271C19.5687 18.5335 18.5299 18.4655 17.5929 18.0774C16.656 17.6893 15.8732 17.0029 15.3661 16.1247C14.8317 13.213 15.2547 15.9026 15.2345 15.7799C15.2144 15.6573 15.2192 15.5319 15.2488 15.4112C15.2783 15.2905 15.332 15.177 15.4066 15.0776C15.4811 14.9782 15.575 14.8948 15.6826 14.8327C15.7902 14.7705 15.9092 14.7307 16.0326 14.7157C16.156 14.7007 16.2811 14.7108 16.4004 14.7455C16.5198 14.7801 15.6702 11.9784 16.7271 14.9172C16.8233 14.9959 16.9026 15.0932 16.9602 15.2033C17.264 15.7312 17.7337 16.1439 18.2963 16.3773C18.8588 16.6108 19.4827 16.6519 20.071 16.4944C20.6594 16.3368 21.1792 15.9893 21.5497 15.5059C21.9202 15.0225 22.1207 14.4302 22.1201 13.8212H15.6702C15.5535 13.8215 15.4378 13.7996 15.3293 13.7567C15.2409 13.7187 15.1599 13.6657 15.0897 13.6C15.0897 13.6 15.0897 13.6 15.0344 13.6C14.9832 13.5448 14.9398 13.4828 14.9054 13.4158C14.8756 13.3827 14.8508 13.3454 14.8317 13.3052C14.8317 13.3052 14.8317 13.2499 14.8317 13.213C14.7833 13.1153 14.7551 13.0087 14.7488 12.8998C14.7401 12.8448 14.7401 12.7889 14.7488 12.7339C14.7443 12.6756 14.7443 12.6171 14.7488 12.5588L17.9921 4.60706H12.906V19.3496C14.1278 19.3496 15.2996 19.835 16.1636 20.699C17.0276 21.563 17.513 22.7348 17.513 23.9567C17.513 24.2011 17.4159 24.4354 17.2431 24.6082C17.0703 24.781 16.836 24.8781 16.5916 24.8781H7.37748C7.13311 24.8781 6.89874 24.781 6.72594 24.6082C6.55315 24.4354 6.45607 24.2011 6.45607 23.9567C6.45609 23.148 6.66898 22.3536 7.07333 21.6532C7.47768 20.9529 8.05926 20.3713 8.7596 19.967C8.86447 19.9003 8.98175 19.8556 9.10437 19.8354C9.22699 19.8152 9.35243 19.8201 9.47313 19.8496C9.59383 19.8792 9.7073 19.9329 9.80672 20.0074C9.90614 20.082 9.98945 20.1759 10.0516 20.2835C10.1138 20.3911 10.1536 20.5101 10.1686 20.6335C10.1836 20.7568 10.1735 20.882 10.1388 21.0013C10.1042 21.1207 10.0458 21.2318 9.96713 21.328C9.88845 21.4241 9.79112 21.5034 9.68101 21.561C9.10973 21.8905 8.67508 22.4134 8.45553 23.0353H15.5135C15.3229 22.4961 14.9698 22.0293 14.5027 21.6993C14.0357 21.3692 13.4778 21.1922 12.906 21.1925C12.7429 21.188 16.7237 21.2785 16.5851 21.1925C16.4465 21.2785 12.1476 21.188 11.9845 21.1925C11.7402 21.1925 11.5058 21.0954 11.333 20.9226C11.1602 20.7498 11.0631 20.5154 11.0631 20.2711V4.60706H5.97694L9.15581 12.5588C9.16025 12.6171 9.16025 12.6756 9.15581 12.7339C9.18642 12.7852 9.20823 12.8413 9.22031 12.8998V13.8212C9.22031 15.043 8.73492 16.2149 7.87093 17.0789C7.00694 17.9428 5.83512 18.4282 4.61325 18.4282C3.39138 18.4282 2.21956 17.9428 1.35557 17.0789C0.491575 16.2149 0.00618935 15.043 0.00618935 13.8212V12.8998ZM19.3558 6.16424L17.0339 11.9784H21.6409L19.3558 6.16424ZM2.29129 11.9784H6.89835L4.61325 6.16424L2.29129 11.9784ZM4.61325 16.5854C5.34637 16.5854 6.04946 16.2942 6.56786 15.7758C7.08625 15.2574 7.37748 14.5543 7.37748 13.8212H1.84901C1.84901 14.5543 2.14024 15.2574 2.65864 15.7758C3.17703 16.2942 3.88013 16.5854 4.61325 16.5854Z" fill="white"/>
<path d="M23.9567 12.8998C23.9653 12.8448 23.9653 12.7889 23.9567 12.7339C23.9611 12.6756 23.9611 12.6171 23.9567 12.5588L20.7133 4.60706H22.1139C22.3582 4.60706 22.5926 4.50998 22.7654 4.33718C22.9382 4.16438 23.0353 3.93002 23.0353 3.68565C23.0353 3.44127 22.9382 3.20691 22.7654 3.03411C22.5926 2.86131 22.3582 2.76423 22.1139 2.76423H12.8998V0.921412C12.8998 0.677038 12.8027 0.442673 12.6299 0.269875C12.4571 0.097077 12.2227 0 11.9783 0C11.734 0 11.4996 0.097077 11.3268 0.269875C11.154 0.442673 11.0569 0.677038 11.0569 0.921412V2.76423H1.84282C1.59845 2.76423 1.36409 2.86131 1.19129 3.03411C1.01849 3.20691 0.921412 3.44127 0.921412 3.68565C0.921412 3.93002 1.01849 4.16438 1.19129 4.33718C1.36409 4.50998 1.59845 4.60706 1.84282 4.60706H3.24337L0.0644987 12.5588C0.0600573 12.6171 0.0600573 12.6756 0.0644987 12.7339C0.033881 12.7852 0.0120793 12.8413 0 12.8998V13.8212C4.46182e-05 14.8353 0.334708 15.8211 0.95209 16.6256C1.56947 17.4302 2.43507 18.0086 3.41465 18.271C4.39423 18.5335 5.43304 18.4655 6.36999 18.0774C7.30693 17.6893 8.08966 17.0029 8.59677 16.1247C9.13119 13.213 8.7082 15.9026 8.72837 15.7799C8.74854 15.6573 8.7437 15.5319 8.71413 15.4112C8.68457 15.2905 8.63089 15.177 8.55633 15.0776C8.48178 14.9782 8.38788 14.8948 8.28029 14.8327C8.1727 14.7705 8.05365 14.7307 7.93028 14.7157C7.80692 14.7007 7.6818 14.7108 7.56245 14.7455C7.4431 14.7801 8.2927 11.9784 7.2358 14.9172C7.13961 14.9959 7.06033 15.0932 7.00273 15.2033C6.69887 15.7312 6.22918 16.1439 5.66663 16.3773C5.10409 16.6108 4.48018 16.6519 3.89185 16.4944C3.30352 16.3368 2.78371 15.9893 2.41318 15.5059C2.04265 15.0225 1.84214 14.4302 1.84282 13.8212H8.2927C8.4094 13.8215 8.52509 13.7996 8.63363 13.7567C8.72196 13.7187 8.80302 13.6657 8.87319 13.6C8.87319 13.6 8.87319 13.6 8.92848 13.6C8.97965 13.5448 9.02305 13.4828 9.05748 13.4158C9.08726 13.3827 9.11209 13.3454 9.13119 13.3052C9.13119 13.3052 9.13119 13.2499 9.13119 13.213C9.17963 13.1153 9.20784 13.0087 9.21412 12.8998C9.22275 12.8448 9.22275 12.7889 9.21412 12.7339C9.21856 12.6756 9.21856 12.6171 9.21412 12.5588L5.97075 4.60706H11.0569V19.3496C9.83507 19.3496 8.66325 19.835 7.79926 20.699C6.93527 21.563 6.44988 22.7348 6.44988 23.9567C6.44988 24.2011 6.54696 24.4354 6.71976 24.6082C6.89255 24.781 7.12692 24.8781 7.37129 24.8781H16.5854C16.8298 24.8781 17.0641 24.781 17.2369 24.6082C17.4097 24.4354 17.5068 24.2011 17.5068 23.9567C17.5068 23.148 17.2939 22.3536 16.8896 21.6532C16.4852 20.9529 15.9036 20.3713 15.2033 19.967C15.0984 19.9003 14.9811 19.8556 14.8585 19.8354C14.7359 19.8152 14.6105 19.8201 14.4898 19.8496C14.3691 19.8792 14.2556 19.9329 14.1562 20.0074C14.0567 20.082 13.9734 20.1759 13.9112 20.2835C13.8491 20.3911 13.8093 20.5101 13.7943 20.6335C13.7793 20.7568 13.7894 20.882 13.8241 21.0013C13.8587 21.1207 13.9171 21.2318 13.9958 21.328C14.0744 21.4241 14.1718 21.5034 14.2819 21.561C14.8532 21.8905 15.2878 22.4134 15.5074 23.0353H8.44934C8.63997 22.4961 8.99313 22.0293 9.46015 21.6993C9.92717 21.3692 10.4851 21.1922 11.0569 21.1925C11.22 21.188 7.23919 21.2785 7.37782 21.1925C7.51644 21.2785 11.8153 21.188 11.9783 21.1925C12.2227 21.1925 12.4571 21.0954 12.6299 20.9226C12.8027 20.7498 12.8998 20.5154 12.8998 20.2711V4.60706H17.986L14.8071 12.5588C14.8026 12.6171 14.8026 12.6756 14.8071 12.7339C14.7765 12.7852 14.7547 12.8413 14.7426 12.8998V13.8212C14.7426 15.043 15.228 16.2149 16.092 17.0789C16.956 17.9428 18.1278 18.4282 19.3496 18.4282C20.5715 18.4282 21.7433 17.9428 22.6073 17.0789C23.4713 16.2149 23.9567 15.043 23.9567 13.8212V12.8998ZM4.60706 6.16424L6.92902 11.9784H2.32196L4.60706 6.16424ZM21.6716 11.9784H17.0645L19.3496 6.16424L21.6716 11.9784ZM19.3496 16.5854C18.6165 16.5854 17.9134 16.2942 17.395 15.7758C16.8766 15.2574 16.5854 14.5543 16.5854 13.8212H22.1139C22.1139 14.5543 21.8226 15.2574 21.3043 15.7758C20.7859 16.2942 20.0828 16.5854 19.3496 16.5854Z" fill="#E11439"/>
</svg>
