<svg width="19" height="23" viewBox="0 0 19 23" fill="none" xmlns="http://www.w3.org/2000/svg">
<path d="M18.1702 5.52823C18.1485 5.41569 18.1033 5.30901 18.0375 5.21519C17.9717 5.12137 17.8868 5.04253 17.7883 4.98386L9.66333 0.108855C9.53981 0.0375427 9.3997 0 9.25708 0C9.11445 0 8.97434 0.0375427 8.85083 0.108855L0.725826 4.98386C0.618299 5.03716 0.523914 5.11362 0.449457 5.20774C0.375 5.30187 0.322319 5.41132 0.295201 5.52823C0.0270762 6.91761 -1.06167 14.0839 3.74833 19.2351C5.18697 20.7666 6.95752 21.9478 8.92395 22.6882C9.11219 22.7609 9.32072 22.7609 9.50895 22.6882C11.4754 21.9478 13.2459 20.7666 14.6846 19.2351C14.8142 19.0752 14.8784 18.8721 14.864 18.6667C14.8497 18.4614 14.7579 18.2691 14.6073 18.1288C14.4567 17.9885 14.2584 17.9106 14.0526 17.9109C13.8467 17.9111 13.6486 17.9895 13.4983 18.1301C12.3053 19.4028 10.8498 20.4008 9.2327 21.0551C7.60979 20.4029 6.14858 19.4047 4.95083 18.1301C0.993951 13.8807 1.54645 8.01448 1.84708 6.18635L9.2327 1.75823L16.6183 6.18635C17.1341 9.2058 16.7644 12.31 15.554 15.1239C15.5004 15.2214 15.4674 15.329 15.4571 15.4398C15.4468 15.5507 15.4594 15.6625 15.4941 15.7683C15.5288 15.874 15.5849 15.9716 15.6589 16.0548C15.7328 16.138 15.8231 16.2051 15.9241 16.252C16.0251 16.2988 16.1346 16.3244 16.2459 16.3272C16.3572 16.33 16.4679 16.3098 16.5711 16.2681C16.6743 16.2263 16.7678 16.1637 16.8458 16.0843C16.9238 16.0049 16.9846 15.9103 17.0246 15.8064C18.4228 12.5712 18.8218 8.99186 18.1702 5.52823Z" fill="#E11439"/>
<path d="M9.23243 17.7807C8.30627 17.315 7.47865 16.675 6.79493 15.8957C5.65582 14.5626 4.90037 12.9449 4.60931 11.2157C4.58904 11.109 4.54795 11.0074 4.48839 10.9165C4.42882 10.8257 4.35196 10.7475 4.26217 10.6864C4.17239 10.6253 4.07145 10.5825 3.96512 10.5604C3.85878 10.5383 3.74913 10.5373 3.64243 10.5576C3.53574 10.5779 3.43407 10.619 3.34326 10.6785C3.25244 10.7381 3.17424 10.815 3.11313 10.9047C3.05201 10.9945 3.00918 11.0955 2.98708 11.2018C2.96498 11.3081 2.96404 11.4178 2.98431 11.5245C3.32527 13.5384 4.2103 15.4209 5.54368 16.9682C6.47297 18.0101 7.61433 18.8412 8.89118 19.4057C8.99593 19.4528 9.10947 19.4772 9.22431 19.4772C9.33915 19.4772 9.45269 19.4528 9.55743 19.4057C10.8359 18.8441 11.9779 18.0126 12.9049 16.9682C15.9924 13.4826 15.7893 8.72948 15.6593 7.35635C15.647 7.23013 15.6053 7.10854 15.5376 7.00131C15.4699 6.89409 15.378 6.8042 15.2693 6.73885L9.64681 3.35885C9.52329 3.28754 9.38318 3.25 9.24056 3.25C9.09794 3.25 8.95783 3.28754 8.83431 3.35885L3.18743 6.73885C3.08005 6.78312 2.9834 6.8499 2.904 6.93468C2.82461 7.01947 2.76431 7.12029 2.72719 7.23035C2.69006 7.34041 2.67697 7.45715 2.68879 7.57271C2.7006 7.68826 2.73706 7.79993 2.7957 7.9002C2.85433 8.00047 2.93379 8.087 3.0287 8.15396C3.12361 8.22092 3.23178 8.26674 3.34591 8.28835C3.46003 8.30997 3.57747 8.30685 3.69029 8.27923C3.80311 8.25161 3.9087 8.20012 3.99993 8.12823L9.23243 5.00823L14.1074 7.91698C14.1968 9.47698 14.1074 13.1739 11.7187 15.8957C11.0206 16.68 10.176 17.3203 9.23243 17.7807Z" fill="#E11439"/>
</svg>
