<svg width="17" height="26" viewBox="0 0 17 26" fill="none" xmlns="http://www.w3.org/2000/svg">
<path d="M11.5 23.5005H10.625C10.6194 22.5835 10.3258 21.6914 9.78571 20.9503C9.24559 20.2092 8.48626 19.6566 7.615 19.3705L13.5912 5.3705C13.6414 5.26394 13.6695 5.14836 13.6739 5.03068C13.6783 4.913 13.6589 4.79565 13.6168 4.68565C13.5748 4.57565 13.511 4.47527 13.4292 4.39052C13.3474 4.30578 13.2494 4.2384 13.141 4.19244C13.0326 4.14648 12.916 4.12288 12.7982 4.12305C12.6805 4.12322 12.5639 4.14715 12.4557 4.19343C12.3474 4.2397 12.2495 4.30735 12.168 4.39233C12.0865 4.47732 12.023 4.57788 11.9812 4.688L5.80375 19.1255C5.11397 19.202 4.4519 19.4399 3.8712 19.82C3.29049 20.2 2.80746 20.7115 2.46125 21.313C2.39794 21.4126 2.35543 21.524 2.33628 21.6404C2.31712 21.7568 2.32172 21.876 2.3498 21.9906C2.37788 22.1052 2.42885 22.213 2.49965 22.3074C2.57045 22.4018 2.65962 22.4809 2.76179 22.54C2.86396 22.599 2.97702 22.6368 3.09417 22.651C3.21132 22.6653 3.33013 22.6556 3.44347 22.6228C3.55681 22.5899 3.66232 22.5344 3.75367 22.4597C3.84501 22.385 3.9203 22.2926 3.975 22.188C4.26355 21.6867 4.70958 21.2948 5.2438 21.0731C5.77801 20.8514 6.37049 20.8123 6.92918 20.962C7.48788 21.1116 7.98151 21.4416 8.33338 21.9006C8.68524 22.3597 8.87564 22.9221 8.875 23.5005H1C0.767936 23.5005 0.545376 23.5927 0.381282 23.7568C0.217187 23.9209 0.125 24.1434 0.125 24.3755C0.125 24.6076 0.217187 24.8301 0.381282 24.9942C0.545376 25.1583 0.767936 25.2505 1 25.2505H11.5C11.7321 25.2505 11.9546 25.1583 12.1187 24.9942C12.2828 24.8301 12.375 24.6076 12.375 24.3755C12.375 24.1434 12.2828 23.9209 12.1187 23.7568C11.9546 23.5927 11.7321 23.5005 11.5 23.5005Z" fill="#E11439"/>
<path d="M14.5102 1.03007C14.0874 0.84956 13.6331 0.754126 13.1734 0.749223C12.7136 0.744319 12.2574 0.830041 11.8308 1.00149C11.4042 1.17294 11.0156 1.42676 10.6871 1.74845C10.3586 2.07014 10.0968 2.4534 9.91645 2.87632L5.90895 12.2388C5.86356 12.3445 5.83944 12.4582 5.83796 12.5732C5.83648 12.6882 5.85768 12.8024 5.90034 12.9093C5.94299 13.0161 6.00628 13.1135 6.08658 13.1959C6.16687 13.2783 6.26261 13.3441 6.36833 13.3894C6.58183 13.4811 6.82299 13.4842 7.03878 13.3981C7.25456 13.3119 7.42729 13.1436 7.51895 12.9301L11.5002 3.55882C11.6835 3.1295 12.0299 2.79059 12.4631 2.61665C12.8963 2.44271 13.3809 2.44799 13.8102 2.63132C14.2395 2.81465 14.5784 3.16102 14.7524 3.59423C14.9263 4.02744 14.921 4.512 14.7377 4.94132L10.739 14.3038C10.6481 14.5162 10.6449 14.756 10.7302 14.9707C10.8154 15.1855 10.9821 15.3578 11.194 15.4501C11.3011 15.4983 11.4177 15.5222 11.5352 15.5201C11.706 15.5207 11.8732 15.4713 12.0162 15.378C12.1593 15.2847 12.2719 15.1516 12.3402 14.9951L16.3477 5.62382C16.7128 4.77094 16.7243 3.808 16.3798 2.94662C16.0352 2.08524 15.3628 1.39589 14.5102 1.03007Z" fill="#E11439"/>
</svg>
