<svg width="19" height="27" viewBox="0 0 19 27" fill="none" xmlns="http://www.w3.org/2000/svg">
<path d="M12.2188 16.2188C12.2188 15.4977 11.9323 14.8062 11.4224 14.2963C10.9126 13.7864 10.2211 13.5 9.5 13.5C9.25965 13.5 9.02914 13.5955 8.85918 13.7654C8.68923 13.9354 8.59375 14.1659 8.59375 14.4062C8.59375 14.6466 8.68923 14.8771 8.85918 15.0471C9.02914 15.217 9.25965 15.3125 9.5 15.3125C9.67924 15.3125 9.85445 15.3656 10.0035 15.4652C10.1525 15.5648 10.2687 15.7063 10.3373 15.8719C10.4059 16.0375 10.4238 16.2198 10.3888 16.3956C10.3539 16.5713 10.2676 16.7328 10.1408 16.8596C10.0141 16.9863 9.8526 17.0726 9.6768 17.1076C9.50101 17.1426 9.31879 17.1246 9.15319 17.056C8.9876 16.9874 8.84606 16.8713 8.74648 16.7222C8.6469 16.5732 8.59375 16.398 8.59375 16.2188C8.59375 15.9784 8.49827 15.7479 8.32832 15.5779C8.15836 15.408 7.92785 15.3125 7.6875 15.3125C7.44715 15.3125 7.21664 15.408 7.04669 15.5779C6.87673 15.7479 6.78125 15.9784 6.78125 16.2188C6.78096 16.7812 6.95512 17.3299 7.27974 17.7893C7.60436 18.2486 8.06345 18.5959 8.59375 18.7834C8.58938 18.8347 8.58938 18.8862 8.59375 18.9375V21.6562C8.59375 21.8966 8.68923 22.1271 8.85918 22.2971C9.02914 22.467 9.25965 22.5625 9.5 22.5625C9.74035 22.5625 9.97086 22.467 10.1408 22.2971C10.3108 22.1271 10.4063 21.8966 10.4063 21.6562V18.9375C10.4106 18.8862 10.4106 18.8347 10.4063 18.7834C10.9365 18.5959 11.3956 18.2486 11.7203 17.7893C12.0449 17.3299 12.219 16.7812 12.2188 16.2188Z" fill="#E11439"/>
<path d="M17.6562 15.3125C17.4159 15.3125 17.1854 15.408 17.0154 15.5779C16.8455 15.7479 16.75 15.9784 16.75 16.2188V24.2391C16.75 24.2751 16.7357 24.3097 16.7102 24.3352C16.6847 24.3607 16.6501 24.375 16.6141 24.375H2.38594C2.34988 24.375 2.31531 24.3607 2.28982 24.3352C2.26432 24.3097 2.25 24.2751 2.25 24.2391V11.8234C2.25 11.7874 2.26432 11.7528 2.28982 11.7273C2.31531 11.7018 2.34988 11.6875 2.38594 11.6875H16.6141C16.6501 11.6875 16.6847 11.7018 16.7102 11.7273C16.7357 11.7528 16.75 11.7874 16.75 11.8234C16.75 12.0638 16.8455 12.2943 17.0154 12.4643C17.1854 12.6342 17.4159 12.7297 17.6562 12.7297C17.8966 12.7297 18.1271 12.6342 18.2971 12.4643C18.467 12.2943 18.5625 12.0638 18.5625 11.8234C18.5625 11.3067 18.3572 10.8111 17.9918 10.4457C17.6264 10.0803 17.1308 9.875 16.6141 9.875H15.8438V7.15625C15.8438 5.47378 15.1754 3.86023 13.9857 2.67054C12.796 1.48086 11.1825 0.8125 9.5 0.8125C7.81753 0.8125 6.20398 1.48086 5.01429 2.67054C3.82461 3.86023 3.15625 5.47378 3.15625 7.15625V9.875H2.38594C1.86918 9.875 1.37359 10.0803 1.00818 10.4457C0.642781 10.8111 0.4375 11.3067 0.4375 11.8234V24.2391C0.4375 24.7558 0.642781 25.2514 1.00818 25.6168C1.37359 25.9822 1.86918 26.1875 2.38594 26.1875H16.6141C17.1308 26.1875 17.6264 25.9822 17.9918 25.6168C18.3572 25.2514 18.5625 24.7558 18.5625 24.2391V16.2188C18.5625 15.9784 18.467 15.7479 18.2971 15.5779C18.1271 15.408 17.8966 15.3125 17.6562 15.3125ZM8.59375 9.875V7.15625C8.59375 6.9159 8.68923 6.68539 8.85918 6.51543C9.02914 6.34548 9.25965 6.25 9.5 6.25C9.74035 6.25 9.97086 6.34548 10.1408 6.51543C10.3108 6.68539 10.4062 6.9159 10.4062 7.15625V9.875H8.59375ZM4.96875 7.15625C4.96875 5.95449 5.44615 4.80195 6.29592 3.95217C7.1457 3.1024 8.29824 2.625 9.5 2.625C10.7018 2.625 11.8543 3.1024 12.7041 3.95217C13.5539 4.80195 14.0312 5.95449 14.0312 7.15625V9.875H12.2188V7.15625C12.2188 6.43519 11.9323 5.74367 11.4224 5.2338C10.9126 4.72394 10.2211 4.4375 9.5 4.4375C8.77894 4.4375 8.08742 4.72394 7.57755 5.2338C7.06769 5.74367 6.78125 6.43519 6.78125 7.15625V9.875H4.96875V7.15625Z" fill="#E11439"/>
</svg>
