<svg width="19" height="27" viewBox="0 0 19 27" fill="none" xmlns="http://www.w3.org/2000/svg">
<path d="M16.3875 0.8125H2.6125C2.03639 0.814886 1.48455 1.0448 1.07718 1.45218C0.669803 1.85955 0.439886 2.41139 0.4375 2.9875V22.2C0.439886 22.7761 0.669803 23.3279 1.07718 23.7353C1.48455 24.1427 2.03639 24.3726 2.6125 24.375C2.85285 24.375 3.08336 24.2795 3.25332 24.1096C3.42327 23.9396 3.51875 23.7091 3.51875 23.4688C3.51875 23.2284 3.42327 22.9979 3.25332 22.8279C3.08336 22.658 2.85285 22.5625 2.6125 22.5625C2.51636 22.5625 2.42416 22.5243 2.35617 22.4563C2.28819 22.3883 2.25 22.2961 2.25 22.2V2.9875C2.25 2.89136 2.28819 2.79916 2.35617 2.73117C2.42416 2.66319 2.51636 2.625 2.6125 2.625H16.3875C16.4836 2.625 16.5758 2.66319 16.6438 2.73117C16.7118 2.79916 16.75 2.89136 16.75 2.9875V22.2C16.75 22.2961 16.7118 22.3883 16.6438 22.4563C16.5758 22.5243 16.4836 22.5625 16.3875 22.5625H11.3125C11.0721 22.5625 10.8416 22.658 10.6717 22.8279C10.5017 22.9979 10.4062 23.2284 10.4062 23.4688C10.4062 23.7091 10.5017 23.9396 10.6717 24.1096C10.8416 24.2795 11.0721 24.375 11.3125 24.375H16.3875C16.9636 24.3726 17.5154 24.1427 17.9228 23.7353C18.3302 23.3279 18.5601 22.7761 18.5625 22.2V2.9875C18.5601 2.41139 18.3302 1.85955 17.9228 1.45218C17.5154 1.0448 16.9636 0.814886 16.3875 0.8125Z" fill="#E11439"/>
<path d="M10.4062 18.9371C10.4085 18.35 10.2682 17.7711 9.99727 17.2502C9.72636 16.7293 9.33297 16.282 8.85095 15.9468C8.36893 15.6116 7.81269 15.3984 7.23008 15.3257C6.64747 15.2531 6.05592 15.323 5.5063 15.5295C4.95669 15.736 4.46545 16.0729 4.07485 16.5112C3.68424 16.9496 3.40596 17.4762 3.26392 18.0459C3.12189 18.6156 3.12035 19.2113 3.25945 19.7817C3.39856 20.3521 3.67413 20.8802 4.06247 21.3205C4.06247 21.3205 4.06247 21.3658 4.06247 21.384V25.2808C4.06294 25.4353 4.10289 25.5871 4.17853 25.7218C4.25417 25.8565 4.36299 25.9697 4.49465 26.0505C4.62631 26.1313 4.77644 26.1771 4.93079 26.1836C5.08514 26.19 5.23858 26.1569 5.37653 26.0874L6.78122 25.3896L8.18591 26.0874C8.31217 26.1521 8.45186 26.1862 8.59372 26.1871C8.7634 26.1876 8.92981 26.1405 9.07403 26.0512C9.20464 25.9695 9.31228 25.856 9.38681 25.7212C9.46133 25.5864 9.50028 25.4349 9.49997 25.2808V21.384C9.49997 21.384 9.49997 21.384 9.49997 21.3205C10.0807 20.662 10.4028 19.8151 10.4062 18.9371ZM6.78122 17.1246C7.1397 17.1246 7.49013 17.2309 7.78819 17.4301C8.08626 17.6292 8.31857 17.9123 8.45575 18.2435C8.59294 18.5747 8.62883 18.9391 8.5589 19.2907C8.48896 19.6423 8.31634 19.9652 8.06285 20.2187C7.80937 20.4722 7.48641 20.6448 7.13482 20.7148C6.78323 20.7847 6.4188 20.7488 6.08761 20.6116C5.75642 20.4744 5.47334 20.2421 5.27418 19.9441C5.07502 19.646 4.96872 19.2956 4.96872 18.9371C4.96872 18.4564 5.15968 17.9954 5.49959 17.6555C5.8395 17.3156 6.30052 17.1246 6.78122 17.1246ZM7.18903 23.568C7.06254 23.5043 6.92287 23.4711 6.78122 23.4711C6.63958 23.4711 6.4999 23.5043 6.37341 23.568L5.87497 23.8127V22.4352C6.46729 22.6045 7.09516 22.6045 7.68747 22.4352V23.8127L7.18903 23.568Z" fill="#E11439"/>
<path d="M4.96875 8.0625H14.0312C14.2716 8.0625 14.5021 7.96702 14.6721 7.79707C14.842 7.62711 14.9375 7.3966 14.9375 7.15625C14.9375 6.9159 14.842 6.68539 14.6721 6.51543C14.5021 6.34548 14.2716 6.25 14.0312 6.25H4.96875C4.7284 6.25 4.49789 6.34548 4.32793 6.51543C4.15798 6.68539 4.0625 6.9159 4.0625 7.15625C4.0625 7.3966 4.15798 7.62711 4.32793 7.79707C4.49789 7.96702 4.7284 8.0625 4.96875 8.0625Z" fill="#E11439"/>
<path d="M4.96875 11.6875H14.0312C14.2716 11.6875 14.5021 11.592 14.6721 11.4221C14.842 11.2521 14.9375 11.0216 14.9375 10.7812C14.9375 10.5409 14.842 10.3104 14.6721 10.1404C14.5021 9.97048 14.2716 9.875 14.0312 9.875H4.96875C4.7284 9.875 4.49789 9.97048 4.32793 10.1404C4.15798 10.3104 4.0625 10.5409 4.0625 10.7812C4.0625 11.0216 4.15798 11.2521 4.32793 11.4221C4.49789 11.592 4.7284 11.6875 4.96875 11.6875Z" fill="#E11439"/>
<path d="M14.0312 13.5H11.3125C11.0721 13.5 10.8416 13.5955 10.6717 13.7654C10.5017 13.9354 10.4062 14.1659 10.4062 14.4062C10.4062 14.6466 10.5017 14.8771 10.6717 15.0471C10.8416 15.217 11.0721 15.3125 11.3125 15.3125H14.0312C14.2716 15.3125 14.5021 15.217 14.6721 15.0471C14.842 14.8771 14.9375 14.6466 14.9375 14.4062C14.9375 14.1659 14.842 13.9354 14.6721 13.7654C14.5021 13.5955 14.2716 13.5 14.0312 13.5Z" fill="#E11439"/>
<path d="M14.0312 17.125H13.125C12.8846 17.125 12.6541 17.2205 12.4842 17.3904C12.3142 17.5604 12.2188 17.7909 12.2188 18.0312C12.2188 18.2716 12.3142 18.5021 12.4842 18.6721C12.6541 18.842 12.8846 18.9375 13.125 18.9375H14.0312C14.2716 18.9375 14.5021 18.842 14.6721 18.6721C14.842 18.5021 14.9375 18.2716 14.9375 18.0312C14.9375 17.7909 14.842 17.5604 14.6721 17.3904C14.5021 17.2205 14.2716 17.125 14.0312 17.125Z" fill="#E11439"/>
</svg>
