<svg width="22" height="23" viewBox="0 0 22 23" fill="none" xmlns="http://www.w3.org/2000/svg">
<path d="M20.7724 15.8714L17.5033 12.6952C17.4065 12.6004 17.2919 12.5256 17.1662 12.475C17.0405 12.4245 16.906 12.3992 16.7705 12.4007C16.635 12.4021 16.5011 12.4302 16.3765 12.4834C16.2518 12.5366 16.1389 12.6138 16.0441 12.7106C15.9493 12.8075 15.8745 12.922 15.824 13.0478C15.7735 13.1735 15.7482 13.3079 15.7496 13.4434C15.7511 13.5789 15.7792 13.7128 15.8324 13.8375C15.8855 13.9621 15.9627 14.0751 16.0596 14.1699L19.3286 17.3461C19.5091 17.5191 19.6513 17.7281 19.7458 17.9595C19.8403 18.191 19.8852 18.4397 19.8774 18.6896C19.8696 18.9395 19.8094 19.185 19.7006 19.4101C19.5919 19.6352 19.437 19.835 19.2461 19.9964C19.0584 20.1599 18.8383 20.2821 18.6002 20.3549C18.3621 20.4278 18.1114 20.4497 17.8643 20.4192C17.6145 20.3862 17.3745 20.3012 17.1596 20.1697C16.9447 20.0383 16.7597 19.8633 16.6165 19.6561L12.3574 13.6645L18.4418 8.44641C18.9229 8.03327 19.2203 7.446 19.2686 6.81368C19.317 6.18136 19.1123 5.55571 18.6996 5.07423L15.1005 0.897664C14.8994 0.655641 14.6513 0.456857 14.3713 0.313296C14.0913 0.169735 13.7851 0.084371 13.4711 0.0623511C13.1576 0.037139 12.8421 0.0742797 12.543 0.171629C12.2439 0.268979 11.967 0.42461 11.7283 0.629539L1.3127 9.60141C1.0733 9.8052 0.876595 10.0544 0.733942 10.3345C0.59129 10.6147 0.505508 10.9203 0.481541 11.2338C0.457575 11.5473 0.495898 11.8624 0.594303 12.161C0.692707 12.4596 0.849245 12.7358 1.05489 12.9736L4.64364 17.1708C4.84866 17.4109 5.099 17.6083 5.38035 17.7516C5.6617 17.895 5.96854 17.9814 6.28333 18.0061H6.46895C7.03795 18.0098 7.58845 17.8043 8.01583 17.4286L10.0783 15.6342L10.7899 15.0258L14.9149 20.873C15.2281 21.3083 15.628 21.6741 16.0894 21.9474C16.5509 22.2207 17.0639 22.3956 17.5961 22.4611C17.7507 22.4713 17.9057 22.4713 18.0602 22.4611C18.8276 22.4614 19.5776 22.2327 20.2143 21.8044C20.851 21.3761 21.3455 20.7676 21.6345 20.0568C21.9235 19.3459 21.9938 18.565 21.8366 17.8139C21.6794 17.0628 21.3016 16.3757 20.7518 15.8405L20.7724 15.8714ZM13.2855 2.12485C13.3293 2.12598 13.3724 2.13672 13.4116 2.15633C13.4508 2.17593 13.4852 2.20391 13.5124 2.23829L17.1115 6.43548C17.1691 6.50058 17.1988 6.58582 17.194 6.67266C17.1821 6.76097 17.138 6.84178 17.0702 6.89954L15.7502 8.03391L11.7283 3.33141L13.069 2.20735C13.1283 2.15373 13.2056 2.1243 13.2855 2.12485ZM6.39677 15.9436C6.35308 15.9418 6.31027 15.9308 6.27117 15.9112C6.23206 15.8916 6.19754 15.864 6.16989 15.8302L2.57083 11.633C2.54254 11.6009 2.52145 11.5631 2.509 11.5222C2.49654 11.4813 2.49301 11.4382 2.49864 11.3958C2.50044 11.3521 2.51149 11.3093 2.53104 11.2702C2.55059 11.2311 2.57821 11.1966 2.61208 11.1689L10.1918 4.67204L14.2136 9.3436L9.5627 13.3964L4.92213 8.31274C4.74435 8.10488 6.84248 10.3992 6.56979 10.3779C6.2971 10.3566 4.61436 9.16622 4.4065 9.34399C4.19864 9.52177 5.48267 11.0532 5.4614 11.3259C5.44013 11.5986 3.7131 9.65176 3.89088 9.85962L7.9952 14.737L6.6752 15.8714C6.6386 15.9059 6.5939 15.9306 6.54523 15.9432C6.49657 15.9558 6.4455 15.9559 6.39677 15.9436Z" fill="#E11439"/>
<rect x="4.2876" y="7.58105" width="7.19409" height="2.00425" transform="rotate(47.9877 4.2876 7.58105)" fill="#E11439"/>
</svg>
