<svg width="25" height="26" viewBox="0 0 25 26" fill="none" xmlns="http://www.w3.org/2000/svg">
<path d="M16.1566 3.06543H8.84408C6.25033 3.06543 5.67741 4.40876 5.34408 6.05543L4.16699 11.9163H20.8337L19.6566 6.05543C19.3232 4.40876 18.7503 3.06543 16.1566 3.06543Z" stroke="#E11439" stroke-width="1.7" stroke-linecap="round" stroke-linejoin="round"/>
<path d="M22.9066 21.472C23.0212 22.7395 22.042 23.8337 20.792 23.8337H18.8337C17.7087 23.8337 17.5524 23.3353 17.3545 22.7178L17.1462 22.0678C16.8545 21.1795 16.667 20.5837 15.167 20.5837H9.83367C8.33367 20.5837 8.11492 21.2553 7.8545 22.0678L7.64617 22.7178C7.44825 23.3353 7.292 23.8337 6.167 23.8337H4.20867C2.95867 23.8337 1.9795 22.7395 2.09409 21.472L2.67742 14.8745C2.82325 13.2495 3.12534 11.917 5.8545 11.917H19.1462C21.8753 11.917 22.1774 13.2495 22.3233 14.8745L22.9066 21.472Z" stroke="#E11439" stroke-width="1.7" stroke-linecap="round" stroke-linejoin="round"/>
<path d="M4.16667 8.66699H3.125" stroke="#E11439" stroke-width="1.7" stroke-linecap="round" stroke-linejoin="round"/>
<path d="M21.8747 8.66699H20.833" stroke="#E11439" stroke-width="1.7" stroke-linecap="round" stroke-linejoin="round"/>
<path d="M12.5 3.25V5.41667" stroke="#E11439" stroke-width="1.7" stroke-linecap="round" stroke-linejoin="round"/>
<path d="M10.9375 5.41699H14.0625" stroke="#E11439" stroke-width="1.7" stroke-linecap="round" stroke-linejoin="round"/>
<path d="M6.25 16.25H9.375" stroke="#E11439" stroke-width="1.7" stroke-linecap="round" stroke-linejoin="round"/>
<path d="M15.625 16.25H18.75" stroke="#E11439" stroke-width="1.7" stroke-linecap="round" stroke-linejoin="round"/>
</svg>
